<?xml version="1.0" encoding="UTF-8" standalone="no"?>
<!-- Created with Inkscape (http://www.inkscape.org/) -->
<svg width="100mm" height="100mm" viewBox="0 0 99.999998 99.999998" version="1.1" id="svg1" inkscape:version="1.4.3 (fcd0343856, 2026-01-01)" sodipodi:docname="favicon-up4.svg" xmlns:inkscape="http://www.inkscape.org/namespaces/inkscape" xmlns:sodipodi="http://sodipodi.sourceforge.net/DTD/sodipodi-0.dtd" xmlns="http://www.w3.org/2000/svg" xmlns:svg="http://www.w3.org/2000/svg">
  <sodipodi:namedview id="namedview1" pagecolor="#ffffff" bordercolor="#000000" borderopacity="0.25" inkscape:showpageshadow="2" inkscape:pageopacity="0.0" inkscape:pagecheckerboard="0" inkscape:deskcolor="#d1d1d1" inkscape:document-units="mm" inkscape:zoom="1" inkscape:cx="380" inkscape:cy="296.5" inkscape:window-width="1920" inkscape:window-height="1011" inkscape:window-x="0" inkscape:window-y="0" inkscape:window-maximized="1" inkscape:current-layer="layer1"/>
  <defs id="defs1">
    <clipPath clipPathUnits="userSpaceOnUse" id="clipPath3">
      <rect style="fill:#cccccc;stroke-width:2;paint-order:markers stroke fill" id="rect4" width="120.17938" height="121.26615" x="154.77582" y="297.83905"/>
    </clipPath>
  </defs>
  <g inkscape:label="Layer 1" inkscape:groupmode="layer" id="layer1" transform="translate(-3.96875,-70.37916)">
    <path id="path2-6" style="fill:#000000;stroke-width:1.00718" d="m 77.917876,73.379422 c -1.588224,0.006 -3.178638,0.139501 -4.74851,0.410727 -3.172097,0.548032 -5.34891,1.282645 -8.189461,2.763414 l -2.374777,1.237917 -1.819353,1.798958 -1.819361,1.798436 -0.921886,1.934644 -0.922399,1.934653 v 1.020291 1.020302 l 0.518037,1.021341 0.518559,1.021333 0.917206,0.43787 c 0.504436,0.240673 1.219019,0.437345 1.588375,0.437345 h 0.671692 l 3.122234,4.342132 c 6.325249,8.796215 8.221836,11.461665 8.676884,12.194505 l 0.465602,0.74995 -0.453671,2.16949 -0.45367,2.17002 0.259537,0.74371 0.259536,0.74367 0.924477,0.31889 c 1.180758,0.40735 1.171539,0.4071 1.983905,0.0348 l 0.685182,-0.31419 0.7973,-1.75668 c 0.438523,-0.96622 0.943262,-2.04798 1.121203,-2.40381 l 0.323391,-0.64715 2.391903,-1.31517 c 1.315537,-0.72334 5.290884,-2.81643 8.834152,-4.65161 l 6.442252,-3.336966 0.964445,0.319921 0.963922,0.319914 1.187638,-0.134128 1.18712,-0.134641 0.9188,-0.895566 0.91928,-0.895567 0.55538,-1.839659 0.55595,-1.839148 -0.13964,-2.047892 -0.13963,-2.04738 -0.67892,-1.962831 C 100.03786,79.50711 89.035479,73.334643 77.917876,73.379402 Z m 0.409554,2.315626 2.609912,0.322003 c 1.435515,0.17737 3.570904,0.565161 4.745393,0.861645 l 2.135481,0.539115 2.694522,1.312552 2.694007,1.312553 2.007781,1.604296 c 2.33075,1.862201 3.779795,3.683865 5.012714,6.301828 l 0.8793,1.866799 v 2.805685 2.805681 l -0.45418,0.834505 c -0.45199,0.829941 -1.037064,1.14447 -1.812597,0.974886 L 98.433844,97.147836 97.059323,94.78315 C 92.387216,86.74653 84.681647,80.772188 76.647177,78.956815 l -2.648848,-0.59861 -3.056312,-0.01617 c -1.680976,-0.009 -3.415107,0.07596 -3.853623,0.188401 l -0.797299,0.204578 0.525297,-0.411776 c 0.288819,-0.226422 1.628465,-0.767102 2.97691,-1.201389 l 2.451597,-0.789617 3.041265,-0.318869 z m -5.65793,5.117657 0.930182,0.258862 0.930183,0.258854 -0.398644,0.131521 c -0.219256,0.07229 -1.295612,0.400736 -2.391902,0.730122 -2.632756,0.79103 -5.794787,2.285106 -8.419419,3.977851 -2.745435,1.770683 -3.540094,1.82137 -3.540094,0.22598 v -0.792231 l 0.541914,-0.881993 c 0.715115,-1.163356 2.612896,-2.399691 4.761997,-3.102646 l 1.738905,-0.568858 2.92344,-0.118987 z m 5.581107,2.66425 1.936154,0.143521 1.936153,0.143519 1.253048,0.725949 c 2.068222,1.198563 4.607049,3.18463 6.370623,4.983531 l 1.662595,1.69615 -6.933811,7.940565 c -3.813714,4.36729 -7.013495,7.92238 -7.110829,7.90037 -0.09732,-0.0219 -0.505832,-0.0902 -0.907863,-0.15136 l -0.730855,-0.11115 -0.299513,-0.5626 c -0.164674,-0.30936 -1.59392,-5.01761 -3.175704,-10.462857 l -2.875677,-9.900261 0.318187,-0.20875 c 0.640051,-0.419735 3.829035,-1.308231 6.162987,-1.717025 z m -10.826378,3.322353 c 0.008,1.81e-4 0.01608,0.001 0.02279,0.003 l 0.372176,0.07465 2.08617,7.214612 c 1.14745,3.968038 2.055516,7.31691 2.017647,7.44216 -0.07825,0.25855 -8.688294,-11.730508 -8.688294,-12.097939 0,-0.350592 3.663827,-2.64705 4.189457,-2.636071 z m 25.063072,6.141615 c 0.303832,-0.006 1.338572,1.39795 2.34207,3.188224 l 0.842462,1.503044 -5.787173,3.073419 c -7.406525,3.93326 -7.514666,3.98757 -7.514666,3.77637 0,-0.18873 1.020352,-1.38261 6.474433,-7.577305 1.879883,-2.135162 3.506626,-3.91663 3.615362,-3.95854 0.008,-0.003 0.01769,-0.005 0.02753,-0.005 z m -57.7088,12.201807 -6.512322,9.03704 c -3.581784,4.97045 -7.111534,10.38868 -7.843766,11.38765 l -1.331427,1.81618 -2.137549,-1.89656 c -1.17576,-1.04338 -2.230241,-1.86114 -2.343114,-1.81668 -0.18398,0.0725 -1.923809,2.23847 -8.5922663,10.69612 L 3.96875,136.9655 v 2.46437 2.46489 l 0.2289096,-0.25416 c 0.1259208,-0.13959 1.0489114,-1.33583 2.0508735,-2.65852 1.0019624,-1.32266 2.9629859,-3.84779 4.3581589,-5.61134 1.395173,-1.76357 2.89451,-3.71493 3.331426,-4.33639 0.436917,-0.62146 0.871815,-1.13262 0.967035,-1.13563 0.09522,-0.003 1.171587,0.83352 2.391904,1.85947 1.220313,1.02596 2.298626,1.86745 2.396059,1.87046 0.09742,0.003 1.301256,-1.588 2.674792,-3.53527 2.393371,-3.3931 12.077348,-17.54646 12.077348,-17.54646 l -0.741784,11.23158 1.309109,1.76712 1.309113,1.76658 -5.340245,8.63521 c 0,0 3.703153,3.6477 4.393969,4.56552 l 5.521159,-3.81232 2.954329,-6.39166 2.843061,7.18104 2.533743,-5.17682 4.755552,5.31736 -14.249674,18.18158 c 0,0 -3.483453,4.49151 -3.574357,4.59266 -0.09088,0.10114 -1.595748,-0.8311 -3.343892,-2.07191 l -3.178817,-2.25612 -0.302105,0.33556 c -0.354522,0.39306 -10.560957,13.49394 -11.658455,14.96472 l -0.747992,1.00202 1.69271,-0.013 1.692707,-0.013 2.524784,-3.2263 c 1.388637,-1.7745 3.517407,-4.50415 4.730861,-6.06595 1.213446,-1.56183 2.298606,-2.93242 2.411108,-3.04575 l 0.204521,-0.20616 2.977943,2.1434 c 1.637864,1.17886 3.095666,2.14342 3.239547,2.14342 0.220313,0 6.317657,-7.50813 8.134962,-10.01716 l 0.57047,-0.78753 1.816759,3.66573 c 0.999323,2.01601 1.938534,3.6649 2.087206,3.66473 0.148682,-1.8e-4 1.705575,-0.83126 3.459637,-1.84697 l 3.189205,-1.84646 2.397097,2.4482 c 4.017009,4.10244 11.948966,12.50868 12.043082,12.76335 l 0.08828,0.23957 h 16.603686 16.603215 l -0.34885,-0.50104 c -0.19195,-0.27553 -6.660096,-7.42002 -14.373227,-15.87696 -7.713128,-8.45698 -14.253978,-15.65709 -14.53517,-15.99965 l -0.511287,-0.62261 -1.275893,0.68314 c -0.701947,0.37581 -2.798063,1.54697 -4.657663,2.60216 l -3.380748,1.91846 -1.173113,-1.26609 c -0.645252,-0.69619 -2.455607,-2.85787 -4.022836,-4.80399 l -2.849732,-3.53843 -9.19076,-11.16012 c -0.473631,-0.67108 -1.078284,-1.50473 -1.734747,-2.38764 -1.509454,-2.03012 -4.503869,-6.07451 -6.654034,-8.98748 z m 38.090328,36.05424 0.722035,0.76303 c 0.396948,0.41961 2.616062,2.86728 4.931734,5.43917 2.315672,2.57186 4.99601,5.52042 5.955885,6.55231 0.959874,1.03187 2.985446,3.23167 4.501428,4.88856 1.515981,1.65688 2.711687,3.05772 2.657143,3.11252 -0.128291,0.12902 -0.676973,-0.26149 -6.875159,-4.88696 -2.850353,-2.12711 -6.059417,-4.52116 -7.131069,-5.32017 -1.071661,-0.79897 -2.005451,-1.39524 -2.075261,-1.32507 -0.0698,0.0703 0.130289,1.83316 0.444328,3.91784 0.314029,2.08469 0.515025,3.84684 0.446919,3.91522 -0.129725,0.13044 -1.809407,-2.45113 -4.126648,-6.34253 -0.754036,-1.26628 -1.522008,-2.4187 -1.706728,-2.56038 -0.184715,-0.14172 -1.471988,-0.65825 -2.860621,-1.14817 -1.388625,-0.48992 -2.925651,-1.0579 -3.415522,-1.26245 l -0.890738,-0.37211 4.079941,-2.27545 c 2.243933,-1.25147 4.363895,-2.45967 4.711133,-2.68511 z" sodipodi:nodetypes="cssccccccccccscsscccccsccsccsccccccccccccssccscccssccccsccscsscssccccccssssccsccccscccccsscsccsccsscsssscscssssccscscssccccssssscsssccccccccccccccccccssscsssccsccscccccsccsscccccsscccssssssssssssccsccscs"/>
  </g>
</svg>