<?xml version="1.0" encoding="UTF-8" standalone="no"?>
<!-- Created with Inkscape (http://www.inkscape.org/) -->
<svg width="50mm" height="50mm" viewBox="0 0 50 50" version="1.1" id="svg5" inkscape:version="1.2.1 (9c6d41e410, 2022-07-14)" sodipodi:docname="logo.svg" xml:space="preserve" inkscape:export-filename="logo.png" inkscape:export-xdpi="508" inkscape:export-ydpi="508" xmlns:inkscape="http://www.inkscape.org/namespaces/inkscape" xmlns:sodipodi="http://sodipodi.sourceforge.net/DTD/sodipodi-0.dtd" xmlns="http://www.w3.org/2000/svg" xmlns:svg="http://www.w3.org/2000/svg"><sodipodi:namedview id="namedview7" pagecolor="#ffffff" bordercolor="#666666" borderopacity="1.0" inkscape:showpageshadow="2" inkscape:pageopacity="0.0" inkscape:pagecheckerboard="0" inkscape:deskcolor="#d1d1d1" inkscape:document-units="mm" showgrid="false" inkscape:zoom="2.5147852" inkscape:cx="43.144838" inkscape:cy="134.40512" inkscape:window-width="1920" inkscape:window-height="1001" inkscape:window-x="2153" inkscape:window-y="-7" inkscape:window-maximized="1" inkscape:current-layer="layer1"/><defs id="defs2"/><g inkscape:label="Layer 1" inkscape:groupmode="layer" id="layer1"><g id="g1106" transform="translate(-26.45815,-2.864128e-4)" style="fill:#808080;stroke:#ffffff"><path id="path1045" style="fill:#ffffff;stroke:none;stroke-width:0.999999" d="m 67.273438,2.3492229 c -3.224427,0.2795805 -5.618279,2.6807133 -7.611586,5.0268232 -3.96093,4.9458319 -5.42635,11.3765029 -9.132483,16.4836609 -0.814922,1.198566 -1.764112,2.249267 -2.694993,3.358363 -0.311808,-0.352755 -0.565446,-0.136755 -0.88897,0.180982 -5.977201,5.655242 -11.620939,11.573626 -17.281167,17.556739 -0.680846,0.769763 -0.924701,2.185365 0.215849,2.678983 1.234606,0.566881 2.234901,-0.444959 3.053609,-1.247446 5.696813,-5.607494 11.241242,-11.46621 16.694819,-17.291801 -0.581116,-0.604053 0.204836,-0.683183 1.240587,-1.786903 3.02892,-2.490714 6.591752,-4.461604 10.162998,-6.04219 3.751339,-1.726683 7.469523,-3.347117 10.264667,-6.488337 1.740938,-1.840743 3.29391,-4.436687 2.822373,-7.0573939 C 73.845092,6.4478681 72.686002,5.6114776 71.504813,5.1343792 71.116053,4.5516438 70.996414,3.829506 70.431641,3.3699239 69.588743,2.5624402 68.433722,2.2552233 67.273438,2.3492229 Z" sodipodi:nodetypes="cccccccccccccccc"/></g><path id="path977" style="fill:#ffffff;stroke-width:1" d="m 1.8359375,2.3671875 c -0.095038,0.5136812 0.4920336,0.9321283 0.6796875,1.390625 2.8532144,4.3325174 6.4818802,8.1678395 10.107572,11.9010355 0.503861,0.498881 1.000179,1.029135 1.560397,1.454433 0.649562,-0.392997 1.236477,-1.430451 2.11914,-0.976562 1.536716,1.004846 1.809831,3.087744 3.244141,4.21289 0.667728,0.815978 2.014605,0.95637 2.400391,1.992188 0.02134,0.449161 -0.01733,0.907168 0.58789,0.896484 1.105905,0.184722 2.281531,-1.177547 1.511085,-2.172848 C 23.076814,19.487137 21.497199,18.427917 20.20857,17.131372 17.169227,14.247823 14.153484,11.339303 11.014503,8.5630369 8.912314,6.7028862 6.8946348,4.6849464 4.4649759,3.250886 3.6559184,2.8055678 2.7738958,2.3907506 1.8359375,2.3671875 Z"/><path style="fill:#000000;stroke-width:1" d="m 1.816665,2.3900548 c 0.140773,-0.116394 0.955194,0.06894 1.671582,0.380396 0.518167,0.225277 1.259754,0.612461 1.719944,0.897986 1.232452,0.764678 4.050105,3.229183 10.682763,9.3438652 0.431328,0.397644 1.15398,1.088787 1.605893,1.535873 1.453075,1.437555 1.98365,1.938591 3.431054,3.240043 1.713712,1.540902 2.598956,2.436423 2.991869,3.026595 0.333766,0.501335 0.449632,0.972164 0.33221,1.350002 -0.114233,0.367587 -0.487582,0.752716 -0.942515,0.97225 -0.190413,0.09189 -0.221891,0.09947 -0.44708,0.107673 -0.270868,0.0099 -0.452206,-0.02617 -0.702397,-0.139619 l -0.148786,-0.06746 -0.01402,-0.299212 c -0.02276,-0.485458 -0.127558,-0.737904 -0.419417,-1.010469 -0.146578,-0.13689 -0.238166,-0.195084 -0.545818,-0.346808 -0.913655,-0.450588 -1.709566,-1.12899 -2.387176,-2.034741 -0.256713,-0.343135 -0.465113,-0.689961 -0.696172,-1.158586 -0.356878,-0.723806 -0.68591,-1.205924 -1.114978,-1.633742 -0.417462,-0.416245 -0.683912,-0.555236 -1.064385,-0.555236 h -0.187969 l -0.685524,0.547364 c -0.377037,0.30105 -0.699126,0.557949 -0.71575,0.570885 -0.03677,0.0286 -0.361784,-0.273295 -1.464112,-1.359914 C 11.642957,14.699564 11.052461,14.082153 9.42358,12.314812 7.933722,10.698305 6.272519,8.7896848 5.278783,7.5526818 3.849294,5.7732548 2.393924,3.7140358 1.898629,2.7700628 1.769111,2.5232168 1.751938,2.4435848 1.816679,2.3900548 Z m 0.542194,0.525499 c 0.733913,1.144606 2.207197,3.168703 3.269696,4.492128 1.698288,2.115352 3.01198,3.6467522 4.591885,5.3528772 1.206424,1.302797 3.555426,3.643946 4.046084,4.032556 l 0.0922,0.07303 0.196951,-0.181228 c 0.211938,-0.195019 0.448185,-0.482522 1.275558,-1.552304 0.674267,-0.871817 0.628547,-0.818606 0.55346,-0.644145 -0.09295,0.215983 -0.240781,0.477723 -0.425643,0.753632 -0.155556,0.232173 -0.240206,0.343527 -0.501793,0.660107 -0.0604,0.07311 -0.08295,0.110155 -0.05013,0.08233 0.427256,-0.361874 0.726432,-0.623642 0.78833,-0.689765 0.251203,-0.268354 0.564292,-0.950496 0.564292,-1.229449 0,-0.06921 -0.08543,-0.153568 -0.930225,-0.918548 C 15.616964,12.954293 15.154779,12.530926 14.802451,12.20596 13.720131,11.20769 10.351179,8.1541558 9.026477,6.9707678 8.375794,6.3894958 7.467926,5.6006448 7.075225,5.2753198 6.854397,5.0923808 6.509814,4.8063898 6.309488,4.6397868 5.793238,4.2104488 5.685533,4.1314928 5.298431,3.8986098 3.958237,3.0923428 3.140731,2.7113578 2.510568,2.5993738 c -0.38635,-0.06866 -0.379332,-0.06808 -0.364679,-0.0299 0.0073,0.01911 0.103163,0.174846 0.212954,0.346075 z M 16.045914,15.666631 c 0.149922,-0.02866 0.4278,0.08125 0.68969,0.2728 0.221855,0.162269 0.83803,0.786127 0.989585,1.001928 0.07001,0.09969 0.292639,0.518371 0.494732,0.93041 0.509034,1.037848 0.758259,1.420106 1.279491,1.962474 0.519553,0.540621 1.054771,0.929579 1.742781,1.266532 0.841677,0.412209 1.029666,0.678709 1.071631,1.519185 l 0.01633,0.32677 0.132917,0.04473 c 0.305494,0.102815 0.726022,0.06853 1.03774,-0.0846 0.208815,-0.102578 0.446212,-0.342543 0.557251,-0.563282 0.08231,-0.163641 0.08456,-0.175622 0.08368,-0.44708 -9.85e-4,-0.249261 -0.009,-0.301607 -0.07624,-0.492075 -0.134573,-0.380703 -0.339106,-0.675363 -0.86721,-1.249329 -0.48959,-0.53211 -1.126472,-1.128645 -2.677715,-2.508074 -1.687133,-1.50027 -2.738683,-2.479062 -3.217278,-2.994666 -0.1393,-0.150074 -0.260821,-0.273616 -0.270045,-0.274539 -0.0092,-8.95e-4 -0.03374,0.04043 -0.0545,0.09189 -0.128331,0.318342 -0.430533,0.699281 -0.820076,1.033745 -0.09288,0.07975 -0.169628,0.151648 -0.170547,0.159774 -9.85e-4,0.0081 0.02512,0.0097 0.0578,0.0034 z m 1.363654,0.637972 c 0.02943,-0.02573 0.671704,-0.431592 0.837429,-0.529193 0.01381,-0.0081 0.193269,0.137624 0.398746,0.323938 0.205477,0.186315 0.67228,0.606955 1.037334,0.934755 2.311366,2.075462 3.35509,3.078013 3.86438,3.711931 0.264582,0.329326 0.393061,0.557982 0.439664,0.782452 0.04139,0.199407 0.01746,0.566991 -0.04786,0.735591 -0.20725,0.534715 -0.838123,0.791952 -1.403694,0.57235 l -0.06041,-0.02345 v -0.41645 c 0,-0.377076 -0.0051,-0.427243 -0.05274,-0.53063 C 22.295824,21.591876 22.146899,21.471126 21.345714,20.992902 20.709016,20.612856 20.53099,20.495417 20.201799,20.238281 19.393212,19.60668 18.750562,18.80854 18.354692,17.94427 18.143293,17.482751 17.881578,16.975203 17.763067,16.796937 17.702947,16.706507 17.590059,16.566401 17.512194,16.485582 17.384797,16.35335 17.374526,16.335231 17.409572,16.304606 Z m 0.700989,0.771505 c 0.110165,0.242561 0.448575,0.23485 0.662516,-0.01509 0.142834,-0.16687 0.170835,-0.325562 0.08772,-0.497234 -0.03667,-0.0758 -0.07784,-0.116427 -0.156511,-0.154509 -0.101733,-0.04925 -0.112697,-0.04993 -0.234285,-0.01458 -0.215559,0.06267 -0.396886,0.297977 -0.402634,0.522508 -9.85e-4,0.03323 0.01859,0.10474 0.04319,0.158915 z m 1.976402,1.961302 c 0.05252,0.110673 0.213207,0.187576 0.34255,0.16394 0.132758,-0.02426 0.276501,-0.118205 0.355676,-0.232454 0.06239,-0.09004 0.07081,-0.122981 0.07081,-0.277496 0,-0.15366 -0.0074,-0.183315 -0.06042,-0.239984 -0.07007,-0.075 -0.172088,-0.132626 -0.234423,-0.132433 -0.339714,0.0011 -0.615979,0.419615 -0.474187,0.718427 z m 2.431203,2.328531 c 0.06919,0.102681 0.146018,0.142073 0.277965,0.142526 0.136763,4.72e-4 0.239128,-0.04579 0.350335,-0.158339 0.215409,-0.217999 0.195143,-0.560426 -0.03975,-0.671897 -0.105805,-0.05021 -0.215102,-0.05007 -0.321482,4.11e-4 -0.26851,0.127416 -0.405962,0.481172 -0.267051,0.687299 z" id="path921"/><path style="fill:#000000;stroke-width:0.999999" d="m 46.520989,6.4325772 c 0.05164,0.167769 0.09161,0.493167 0.08881,0.723113 -0.006,0.497711 -0.47804,2.9809058 -0.681298,3.5843358 -0.765003,2.271112 -2.803981,4.67245 -5.69716,6.709644 -1.506852,1.061029 -4.259358,2.620465 -7.557473,4.281696 -0.372141,0.187444 -1.285758,0.647354 -2.03026,1.022024 -3.229888,1.625432 -4.723803,2.668246 -7.503343,5.237637 l -0.420556,0.388761 0.09201,0.09201 0.09201,0.09201 0.426631,-0.382689 c 2.357548,-2.114706 4.301848,-3.531614 6.734383,-4.907683 1.155364,-0.653581 1.892386,-1.033918 4.385439,-2.263083 6.643846,-3.275655 9.105746,-4.92378 11.043549,-7.393125 1.630472,-2.077711 2.262918,-4.3219278 1.710315,-6.0690038 -0.136327,-0.430993 -0.49186,-1.129744 -0.664436,-1.305853 -0.103153,-0.105214 -0.104684,-0.08936 -0.01863,0.190208 z m -3.601437,-3.390335 c -0.815403,-0.377667 -1.940586,-0.490393 -2.916716,-0.292212 -2.37664,0.482516 -4.85532,2.371987 -6.836657,5.211498 -1.038014,1.487605 -1.996522,3.2110678 -3.675727,6.6092028 -1.472111,2.979049 -2.316117,4.638246 -2.770071,5.445572 -1.206685,2.146005 -2.619406,4.163965 -4.177331,5.966986 -1.102273,1.275684 -1.034965,1.184878 -0.944973,1.274871 0.07391,0.07391 0.09541,0.06297 0.321867,-0.163725 0.756266,-0.757092 2.201803,-2.50772 2.907569,-3.52123 0.889695,-1.27764 1.303925,-2.02438 2.813184,-5.071385 2.81713,-5.687434 3.934539,-7.628152 5.593271,-9.7144028 0.621159,-0.781257 2.190591,-2.351017 2.877909,-2.878494 1.069863,-0.821082 2.174833,-1.45189 3.14542,-1.795666 0.590693,-0.209219 1.562562,-0.392514 2.152887,-0.406031 0.274218,-0.0063 0.791793,-0.05619 1.150167,-0.1109 0.358382,-0.05475 0.790112,-0.07723 0.959415,-0.05006 l 0.307822,0.04943 -0.243144,-0.17906 c -0.133735,-0.09848 -0.432927,-0.266954 -0.66488,-0.374386 z m 0.777042,1.011679 c -0.294627,-0.106867 -0.716464,-0.166332 -0.877973,-0.123762 -0.06593,0.01738 8.3e-5,0.06771 0.22724,0.173213 0.187666,0.08717 0.527597,0.328917 0.821359,0.58412 0.290425,0.25231 0.525842,0.420042 0.559816,0.398882 0.07297,-0.04544 0.04837,-0.373315 -0.04129,-0.550396 -0.09055,-0.178829 -0.346242,-0.357647 -0.689145,-0.482058 z m 1.394052,1.429557 c -0.06185,0.01085 -0.09863,0.06181 -0.131886,0.182766 -0.04462,0.162255 -0.02887,0.185276 0.481765,0.706244 0.458821,0.468027 0.540036,0.577369 0.620724,0.835405 0.06783,0.216905 0.09511,0.259617 0.101273,0.158543 0.01414,-0.23193 -0.09401,-0.6742 -0.250292,-1.023587 -0.161734,-0.361564 -0.664068,-0.887005 -0.82158,-0.859378 z m -1.31259,0.20779 c -0.02313,0.02313 -0.0083,0.05197 0.03298,0.06408 0.04127,0.0121 0.08578,-0.0052 0.09891,-0.03844 0.02745,-0.06954 -0.0692,-0.08833 -0.13189,-0.02564 z m -0.769421,-0.662617 c -0.929306,-0.192551 -2.107993,0.263205 -3.556407,1.375132 -0.773221,0.593593 -2.483489,2.319149 -3.637234,3.6697518 -1.105626,1.294271 -1.198087,1.447013 -0.401092,0.662583 2.294179,-2.2580038 5.160893,-4.2338278 6.938871,-4.7824698 0.203168,-0.0627 0.579583,-0.222258 0.836481,-0.354591 l 0.467083,-0.240603 -0.177142,-0.134506 c -0.09743,-0.07398 -0.309181,-0.161861 -0.470557,-0.195299 z m 1.617325,1.4386 c -0.07643,0.07663 -0.389398,0.68861 -0.403765,0.789496 -0.181881,1.277209 -1.450304,3.5393138 -3.135129,5.5911898 -0.286776,0.349254 -0.511793,0.644646 -0.500035,0.656431 0.07368,0.07386 1.949154,-1.881302 2.451553,-2.555715 1.103857,-1.4818058 1.808618,-3.1936278 1.707134,-4.1465128 -0.02401,-0.225431 -0.0781,-0.376672 -0.119757,-0.33489 z m 0.600172,1.209965 c -0.299164,1.152959 -1.078778,2.5368028 -2.288383,4.0619588 -0.546157,0.688633 -2.294937,2.40239 -3.270016,3.204528 -1.746382,1.436636 -4.354814,3.434795 -7.384655,5.656926 -2.099651,1.539916 -1.895421,1.386471 -1.72815,1.298412 0.07592,-0.03996 0.639608,-0.371158 1.252635,-0.735974 0.613029,-0.364817 1.786213,-1.0568 2.607077,-1.537742 2.493819,-1.461121 4.075209,-2.520695 5.829727,-3.906082 2.176937,-1.718934 3.657981,-3.233991 4.57905,-4.68422 0.333908,-0.525737 0.757933,-1.4081038 0.858577,-1.7866388 0.08217,-0.30903 0.0078,-0.912173 -0.181193,-1.468694 -0.07402,-0.218017 -0.14534,-0.410283 -0.158485,-0.427257 -0.01315,-0.01699 -0.06543,0.129178 -0.116186,0.324783 z m -3.486261,-3.3029 c -0.440199,-0.07201 -0.71019,-0.04406 -1.178366,0.122002 -0.850437,0.301644 -1.619593,0.739305 -2.515534,1.431377 -0.735084,0.567819 -2.470012,2.300171 -3.260191,3.255368 -1.199069,1.4494488 -2.449169,3.1710488 -3.501817,4.8225958 -0.287135,0.4505 -1.135375,1.849851 -1.884978,3.109669 -0.749603,1.259818 -1.43299,2.397667 -1.518635,2.528552 -0.08564,0.130882 -0.142487,0.235658 -0.12631,0.232828 0.01618,-0.0028 0.986816,-1.269644 2.156979,-2.815142 4.361405,-5.760344 5.426282,-7.1141038 6.64277,-8.4448508 0.903293,-0.988139 1.916494,-1.934895 2.670506,-2.495388 0.964032,-0.716609 2.072443,-1.290545 2.852089,-1.476813 l 0.377699,-0.09024 -0.18829,-0.06236 c -0.103561,-0.0343 -0.340219,-0.08721 -0.525912,-0.117593 z m 1.665247,1.797029 c -0.33315,0.03858 -0.387071,0.06386 -0.99197,0.464802 -1.576328,1.044868 -3.116449,2.444449 -5.039601,4.5797208 -0.470074,0.521919 -1.320663,1.461079 -1.890201,2.087019 -0.569539,0.625938 -1.876866,2.06567 -2.905172,3.199398 -3.980914,4.389042 -7.512364,8.179449 -9.987869,10.720267 l -0.519777,0.53349 0.13283,0.143274 c 0.131555,0.141859 0.134417,0.141699 0.295334,-0.01799 2.616183,-2.596198 10.16614,-9.619797 15.045951,-13.997006 1.040843,-0.93364 3.551061,-3.442528 4.140197,-4.1379688 0.591026,-0.697713 1.311885,-1.660513 1.782051,-2.380158 0.312793,-0.478768 0.369487,-0.598594 0.393169,-0.830992 0.01522,-0.149356 -0.0017,-0.301495 -0.03748,-0.338087 -0.03584,-0.03659 -0.223691,-0.04817 -0.417456,-0.02574 z m -0.124068,2.234513 c -0.97085,1.288113 -2.806005,3.2620318 -4.26681,4.5894428 -0.453095,0.41172 -1.877302,1.672135 -3.164908,2.800923 -5.136626,4.503057 -10.324873,9.253804 -12.710358,11.638555 l -0.682243,0.682034 0.10866,0.108661 0.108662,0.108662 0.956674,-0.916319 c 2.138189,-2.047999 4.053449,-3.63935 9.484876,-7.880777 2.956008,-2.308362 3.781727,-2.971014 4.61744,-3.705567 0.803293,-0.706056 2.307667,-2.260492 3.003021,-3.102959 0.837302,-1.014445 1.679309,-2.244449 2.217616,-3.2394978 0.30697,-0.56743 0.726119,-1.490869 0.692716,-1.526146 -0.0096,-0.01018 -0.17404,0.189171 -0.365344,0.442992 z m -2.593936,-1.314572 c -1.613372,0.90956 -3.503467,2.411723 -5.59592,4.4473908 -1.902785,1.851152 -2.263458,2.276929 -5.422501,6.401323 -2.909016,3.797967 -5.073754,6.417348 -7.501941,9.077518 l -0.38621,0.423107 0.09966,0.09966 0.09966,0.09966 1.01155,-1.055048 c 1.096876,-1.144052 2.943031,-3.122221 4.69528,-5.031042 1.298419,-1.414439 1.360785,-1.483853 5.187141,-5.773339 1.618935,-1.814886 3.400541,-3.800077 3.959125,-4.411536 1.674297,-1.8327848 3.683167,-3.7975908 4.605817,-4.5047908 0.15839,-0.121405 0.346645,-0.266124 0.418344,-0.321603 0.175283,-0.135627 -0.606405,0.23096 -1.170007,0.548697 z m -2.038629,-2.311738 c -1.405695,0.599862 -2.937048,1.771125 -4.159708,3.181576 -1.675211,1.932513 -2.696792,3.5915918 -5.577112,9.0574028 -0.592029,1.12346 -1.066714,2.040958 -1.054853,2.038884 0.01185,-0.002 0.479007,-0.813648 1.0381,-1.803496 2.474234,-4.380517 3.450386,-5.889028 5.303461,-8.1957908 0.677265,-0.843079 2.495693,-2.663221 3.166404,-3.1694 0.585555,-0.441903 1.292913,-0.905487 1.843865,-1.208421 l 0.417758,-0.229698 -0.241377,0.05881 c -0.132757,0.03235 -0.464201,0.153903 -0.736542,0.270122 z m 6.528252,6.4952208 c -0.94951,1.585887 -2.374671,3.093383 -4.501349,4.761402 -1.718315,1.347728 -2.899382,2.106993 -6.366598,4.092852 -2.407886,1.379123 -4.259639,2.466672 -4.26647,2.50573 -0.0065,0.03718 2.728112,-1.394295 4.991529,-2.612899 4.039916,-2.175056 6.178086,-3.61796 7.869771,-5.310765 1.062164,-1.062865 1.706595,-1.934295 2.218683,-3.000197 0.22094,-0.459881 0.44393,-1.004088 0.408919,-0.997964 -0.01111,0.0019 -0.170633,0.254775 -0.354485,0.561841 z M 22.252353,30.139911 c -0.410994,0.4121 -0.810946,0.847395 -1.143819,1.207133 -1.269306,1.372522 -3.479396,3.677848 -5.99845,6.256937 -2.507092,2.566839 -8.8563209,8.835343 -9.5485109,9.427103 -0.717578,0.613468 -1.449564,0.875373 -2.118114,0.757868 -0.341404,-0.06001 -0.386525,-0.08593 -0.706392,-0.405793 -0.307255,-0.307255 -0.347207,-0.372916 -0.396434,-0.651461 -0.06554,-0.370886 0.05813,-1.04538 0.263157,-1.435176 0.216031,-0.410731 0.650791,-0.881021 3.904665,-4.223768 C 10.505111,36.966938 16.614653,30.939095 19.365511,28.38762 l 0.583084,-0.54082 1.006985,-0.956914 c 0.04385,-0.04385 0.210301,0.03144 0.329507,0.149043 l 0.09376,0.09249 0.33523,-0.381594 c 0.628209,-0.71508 1.610899,-1.970275 2.223694,-2.840324 1.533548,-2.177344 2.823059,-4.543022 4.437361,-8.140584 2.52777,-5.633276 4.025472,-8.0160468 6.566215,-10.4465338 0.928091,-0.887816 1.506771,-1.349969 2.326346,-1.857896 2.012438,-1.247197 3.955163,-1.595001 5.541148,-0.992028 0.604876,0.229968 0.975198,0.5053 1.581861,1.176107 0.560925,0.620228 0.730778,0.913096 0.714743,1.232359 -0.0084,0.166044 -0.0054,0.168732 0.218535,0.203668 0.475032,0.07409 0.772567,0.235853 1.264003,0.687198 0.260709,0.239438 0.541055,0.54124 0.622944,0.670718 l 3e-6,8e-6 c 0.903642,1.428187 0.862512,3.267739 -0.118265,5.2893658 -0.684516,1.410965 -1.396991,2.339399 -2.931691,3.820333 -1.288471,1.243331 -2.125765,1.890948 -3.651895,2.824614 -1.505291,0.920916 -3.001264,1.677625 -6.564543,3.320545 -2.994183,1.380527 -4.508783,2.177549 -6.171778,3.247751 -1.292908,0.832037 -3.064699,2.177844 -4.192941,3.18485 -0.2016,0.179936 -0.418388,0.366002 -0.481746,0.413487 -0.102212,0.0766 -0.121855,0.125556 0.01192,0.320154 0.06302,0.09166 0.130668,0.201455 0.04387,0.29271 z m -2.658391,1.261874 c -0.390408,-0.235373 -0.978342,-0.82524 -1.329364,-1.333761 -0.181682,-0.263189 -0.115281,0.0017 0.09798,0.390836 0.210913,0.384857 1.015565,1.251297 1.344078,1.447294 0.225408,0.134476 0.530227,0.128553 0.5264,-0.01023 -0.0028,-0.101555 -0.0555,-0.142304 -0.639086,-0.494143 z m -0.799741,0.978649 c -0.415223,-0.230391 -1.271733,-1.055285 -1.422923,-1.370393 -0.13447,-0.280274 -0.175861,-0.156255 -0.0488,0.146231 0.153794,0.366141 0.846272,1.22618 1.227379,1.524374 0.307154,0.240336 0.629163,0.337713 0.742372,0.224506 0.0594,-0.0594 0.008,-0.2702 -0.07316,-0.300045 -0.03254,-0.01197 -0.22373,-0.113065 -0.424873,-0.224671 z m -0.962415,0.923617 c -0.361135,-0.19777 -0.499726,-0.313906 -0.906723,-0.759812 -0.26424,-0.289495 -0.510402,-0.584077 -0.547034,-0.654619 -0.05008,-0.09646 -0.06662,-0.104081 -0.06669,-0.03074 -2.67e-4,0.277019 0.327344,0.752924 0.940146,1.365727 0.536841,0.53684 0.644105,0.621695 0.825056,0.652653 0.287096,0.04912 0.404732,-0.08757 0.237743,-0.276252 -0.03092,-0.03491 -0.248032,-0.168558 -0.482492,-0.296958 z M 5.0412531,44.415798 c -0.306795,-0.0091 -0.591515,0.124666 -0.880586,0.41374 -0.30224,0.302239 -0.423677,0.577854 -0.394944,0.896368 0.04189,0.464348 0.528714,0.767756 0.970055,0.604577 0.428089,-0.15828 0.835002,-0.605124 0.945907,-1.038733 0.119612,-0.467658 -0.168661,-0.861948 -0.640432,-0.875952 z" id="path306" sodipodi:nodetypes="scssssscccssssscssssssssscssscssccccsssssssssssscssssssscssssssscssssssssssssssssssssscsssssscssscsssscsssccsssscccscsscccsssscccssssscsssssscccsssssssscsscsssscscccssssssccccssssssssccscsssssssccsssssssssssccssssssssssssssssscssscssssssss"/><g id="g2471" transform="translate(1.5875,1.5875)"><circle style="fill:none;stroke:#000000;stroke-width:1.5;stroke-linecap:round;stroke-linejoin:round;stroke-miterlimit:2;stroke-dasharray:none;paint-order:markers fill stroke;stop-color:#000000" id="path1639" cx="37.25" cy="37.25" r="9"/><path style="fill:none;stroke:#000000;stroke-width:0.5;stroke-linecap:butt;stroke-linejoin:miter;stroke-dasharray:none;stroke-opacity:1" d="m 37.779167,28.25 c 6.045848,6.422255 5.894876,12.037071 0,18.000001" id="path2112-9" sodipodi:nodetypes="cc"/><path style="fill:none;stroke:#000000;stroke-width:0.5;stroke-linecap:butt;stroke-linejoin:miter;stroke-dasharray:none;stroke-opacity:1" d="m 36.720833,28.25 c -6.045848,6.422255 -5.894876,12.037071 0,18.000001" id="path2112-9-4" sodipodi:nodetypes="cc"/><path style="fill:none;stroke:#000000;stroke-width:0.5;stroke-linecap:butt;stroke-linejoin:miter;stroke-dasharray:none;stroke-opacity:1" d="M 37.249999,28.249999 V 46.25" id="path2158"/><path style="fill:none;stroke:#000000;stroke-width:0.5;stroke-linecap:butt;stroke-linejoin:miter;stroke-dasharray:none;stroke-opacity:1" d="M 46.25,37.25 H 28.249999" id="path2158-1"/><path style="fill:none;stroke:#000000;stroke-width:0.5;stroke-linecap:butt;stroke-linejoin:miter;stroke-dasharray:none;stroke-opacity:1" d="m 37.0125,28.25 c -2.962912,6.422255 -2.888925,12.037071 0,18.000001" id="path2230" sodipodi:nodetypes="cc"/><path style="fill:none;stroke:#000000;stroke-width:0.5;stroke-linecap:butt;stroke-linejoin:miter;stroke-dasharray:none;stroke-opacity:1" d="m 37.47237,28.25 c 2.962912,6.422255 2.888925,12.037071 0,18.000001" id="path2232" sodipodi:nodetypes="cc"/><path style="fill:none;stroke:#000000;stroke-width:0.5;stroke-linecap:butt;stroke-linejoin:miter;stroke-dasharray:none;stroke-opacity:1" d="m 36.217348,28.25 c -7.795808,6.422255 -7.601138,12.037071 0,18.000001" id="path2256" sodipodi:nodetypes="cc"/><path style="fill:none;stroke:#000000;stroke-width:0.5;stroke-linecap:butt;stroke-linejoin:miter;stroke-dasharray:none;stroke-opacity:1" d="m 38.289726,28.25 c 7.795808,6.422255 7.601138,12.037071 0,18.000001" id="path2258" sodipodi:nodetypes="cc"/><path style="fill:none;stroke:#000000;stroke-width:0.5;stroke-linecap:butt;stroke-linejoin:miter;stroke-dasharray:none;stroke-opacity:1" d="M 45.671362,34.074998 H 28.828637" id="path2260"/><path style="fill:none;stroke:#000000;stroke-width:0.5;stroke-linecap:butt;stroke-linejoin:miter;stroke-dasharray:none;stroke-opacity:1" d="M 43.627887,30.899996 H 30.872113" id="path2262"/><path style="fill:none;stroke:#000000;stroke-width:0.5;stroke-linecap:butt;stroke-linejoin:miter;stroke-dasharray:none;stroke-opacity:1" d="M 45.671362,40.425002 H 28.828637" id="path2264"/><path style="fill:none;stroke:#000000;stroke-width:0.5;stroke-linecap:butt;stroke-linejoin:miter;stroke-dasharray:none;stroke-opacity:1" d="M 43.627886,43.600004 H 30.872112" id="path2266"/></g></g></svg>