<?xml version="1.0" encoding="UTF-8" standalone="no"?>
<svg
   xmlns:dc="http://purl.org/dc/elements/1.1/"
   xmlns:cc="http://creativecommons.org/ns#"
   xmlns:rdf="http://www.w3.org/1999/02/22-rdf-syntax-ns#"
   xmlns:svg="http://www.w3.org/2000/svg"
   xmlns="http://www.w3.org/2000/svg"
   xmlns:sodipodi="http://sodipodi.sourceforge.net/DTD/sodipodi-0.dtd"
   xmlns:inkscape="http://www.inkscape.org/namespaces/inkscape"
   sodipodi:docname="certificate.svg"
   inkscape:version="1.0 (4035a4fb49, 2020-05-01)"
   id="svg8"
   version="1.1"
   viewBox="0 0 50 50"
   height="50mm"
   width="50mm">
  <defs
     id="defs2" />
  <sodipodi:namedview
     inkscape:window-maximized="1"
     inkscape:window-y="-8"
     inkscape:window-x="-8"
     inkscape:window-height="1002"
     inkscape:window-width="1920"
     showgrid="false"
     inkscape:document-rotation="0"
     inkscape:current-layer="layer1"
     inkscape:document-units="mm"
     inkscape:cy="62.246918"
     inkscape:cx="89.934503"
     inkscape:zoom="2.8"
     inkscape:pageshadow="2"
     inkscape:pageopacity="0.0"
     borderopacity="1.0"
     bordercolor="#666666"
     pagecolor="#ffffff"
     id="base" />
  <metadata
     id="metadata5">
    <rdf:RDF>
      <cc:Work
         rdf:about="">
        <dc:format>image/svg+xml</dc:format>
        <dc:type
           rdf:resource="http://purl.org/dc/dcmitype/StillImage" />
        <dc:title></dc:title>
      </cc:Work>
    </rdf:RDF>
  </metadata>
  <g
     id="layer1"
     inkscape:groupmode="layer"
     inkscape:label="Layer 1">
    <path
       id="path861"
       d="m 28.968354,49.217152 c -0.193701,-0.112905 -0.399509,-0.667362 -0.534355,-1.439573 -0.07022,-0.4021 -0.170439,-0.814429 -0.222718,-0.916286 -0.09632,-0.187668 -0.200678,-0.656933 -0.281794,-1.267168 -0.02452,-0.184453 -0.104486,-0.487356 -0.177706,-0.673116 -0.07322,-0.18576 -0.177491,-0.634448 -0.231713,-0.997084 -0.05422,-0.362637 -0.157152,-0.792762 -0.228735,-0.955835 -0.07158,-0.163073 -0.166003,-0.55611 -0.209826,-0.873416 -0.04382,-0.317306 -0.151646,-0.761693 -0.239607,-0.987527 -0.08796,-0.225833 -0.180675,-0.62289 -0.20603,-0.882349 -0.02536,-0.259458 -0.116116,-0.640871 -0.201691,-0.847585 -0.08558,-0.206714 -0.189604,-0.634314 -0.231176,-0.950222 -0.04157,-0.315908 -0.134952,-0.716107 -0.207514,-0.889331 -0.07256,-0.173225 -0.178701,-0.6056 -0.235863,-0.960834 -0.05716,-0.355235 -0.153128,-0.763277 -0.213257,-0.906761 -0.255179,-0.608935 -0.380027,-1.977463 -0.201816,-2.212227 0.108373,-0.142763 0.350272,-0.152076 0.6608,-0.02544 0.125881,0.05134 0.457947,0.114819 0.737923,0.141072 0.369895,0.03469 0.601815,0.09998 0.848412,0.238857 0.569891,0.32095 2.940468,0.339118 3.401145,0.02607 0.145198,-0.09867 0.389686,-0.222308 0.543309,-0.274755 0.302338,-0.10322 1.118576,-0.859706 1.294637,-1.199866 0.416256,-0.80423 1.378106,-1.758303 2.282197,-2.263746 0.249867,-0.13969 0.724829,-0.184733 0.826409,-0.07837 0.173745,0.181923 0.503052,1.143992 0.577371,1.68679 0.04144,0.302663 0.133386,0.685699 0.204325,0.851193 0.07094,0.165493 0.17354,0.599458 0.228002,0.964365 0.05446,0.364908 0.163496,0.826772 0.242295,1.026363 0.0788,0.199592 0.175445,0.596649 0.214766,0.882349 0.03932,0.2857 0.132047,0.656897 0.206056,0.824883 0.07401,0.167986 0.178321,0.595585 0.231806,0.950222 0.05349,0.354636 0.159127,0.806936 0.234761,1.00511 0.07563,0.198175 0.169849,0.595232 0.209367,0.882349 0.03952,0.287117 0.132575,0.659474 0.206792,0.82746 0.07422,0.167985 0.166567,0.549771 0.205222,0.848412 0.03865,0.298641 0.143778,0.741512 0.233605,0.984158 0.08983,0.242646 0.206328,0.731331 0.258893,1.085967 0.05256,0.354637 0.156188,0.782236 0.230278,0.950222 0.07409,0.167986 0.166647,0.549771 0.205684,0.848412 0.03904,0.298641 0.138654,0.695698 0.221372,0.882349 0.279439,0.630549 0.194717,1.397455 -0.142967,1.294139 -0.568261,-0.173861 -0.837526,-0.277446 -1.166005,-0.448553 -0.212007,-0.110436 -0.438609,-0.200793 -0.50356,-0.200793 -0.06495,0 -0.276038,-0.08914 -0.469081,-0.198086 -0.193045,-0.108948 -0.485391,-0.234277 -0.649659,-0.27851 -0.164269,-0.04423 -0.381438,-0.139359 -0.482598,-0.211391 -0.10116,-0.07203 -0.321285,-0.172306 -0.489167,-0.222832 -0.167882,-0.05052 -0.386285,-0.155614 -0.485342,-0.233532 -0.09906,-0.07792 -0.291539,-0.161256 -0.42774,-0.185196 -0.136201,-0.02394 -0.387755,-0.131643 -0.559009,-0.239339 -0.676619,-0.425505 -0.926059,-0.326136 -1.789419,0.712854 -0.14752,0.17753 -0.330777,0.392861 -0.407238,0.478512 -0.07646,0.08565 -0.368089,0.440013 -0.648065,0.787469 -0.843477,1.046775 -2.098541,2.497025 -2.257016,2.608025 -0.171898,0.120402 -0.243556,0.126089 -0.40476,0.03213 z m -7.621685,-0.144243 c -0.103781,-0.08163 -0.37515,-0.382132 -0.603041,-0.667773 -0.791942,-0.992624 -2.305672,-2.80999 -3.122019,-3.748258 -0.299339,-0.344044 -0.748577,-0.362487 -1.239893,-0.0509 -0.17659,0.11199 -0.383815,0.203986 -0.4605,0.204436 -0.07668,4.76e-4 -0.276868,0.08011 -0.444854,0.177028 -0.167986,0.09692 -0.458142,0.222131 -0.644793,0.278256 -0.186651,0.05613 -0.416002,0.156561 -0.50967,0.223192 -0.09367,0.06663 -0.307467,0.157201 -0.47511,0.201266 -0.167644,0.04407 -0.412465,0.153512 -0.544048,0.243213 -0.131583,0.0897 -0.345383,0.182784 -0.475111,0.206848 -0.129728,0.02406 -0.373312,0.12742 -0.541297,0.229681 -0.995272,0.605866 -1.712066,0.438269 -1.384857,-0.3238 0.05959,-0.138788 0.150263,-0.54409 0.201492,-0.900669 0.05123,-0.35658 0.154979,-0.788116 0.230556,-0.95897 0.07558,-0.170853 0.17072,-0.551049 0.21143,-0.844879 0.04071,-0.29383 0.135908,-0.702222 0.211551,-0.907537 0.07564,-0.205316 0.179354,-0.648187 0.230469,-0.984159 0.05112,-0.335971 0.156586,-0.768825 0.234379,-0.961897 0.07779,-0.193072 0.182354,-0.635944 0.232355,-0.984158 0.05,-0.348215 0.1519,-0.77056 0.226442,-0.938546 0.07454,-0.167985 0.167917,-0.553172 0.207502,-0.85597 0.03958,-0.302798 0.136895,-0.715126 0.216244,-0.916285 0.07935,-0.201159 0.186674,-0.647915 0.238498,-0.992791 0.05183,-0.344876 0.151043,-0.741933 0.220486,-0.882348 0.06944,-0.140416 0.161654,-0.532025 0.204915,-0.870242 0.04326,-0.338218 0.151559,-0.796361 0.240663,-1.018095 0.0891,-0.221735 0.183931,-0.614455 0.210724,-0.872713 0.02679,-0.258258 0.132002,-0.685858 0.233795,-0.950221 0.101793,-0.264365 0.213979,-0.571995 0.249301,-0.683622 0.191674,-0.605735 1.413906,0.296373 2.298071,1.696164 0.364083,0.576408 1.013942,1.176851 1.538042,1.421089 0.126396,0.0589 0.331829,0.172366 0.456519,0.252142 0.378005,0.241849 2.867338,0.213305 3.245905,-0.03722 0.788897,-0.522067 1.199043,-0.216092 1.400733,1.044971 0.05672,0.354636 0.168419,0.80999 0.248222,1.011896 0.0798,0.201907 0.175695,0.611132 0.213093,0.90939 0.0374,0.298258 0.142833,0.720091 0.2343,0.937406 0.232689,0.552844 0.224213,1.103036 -0.02888,1.874437 -0.107349,0.327194 -0.216197,0.789603 -0.241883,1.027574 -0.02569,0.237971 -0.108455,0.589214 -0.183928,0.780539 -0.07547,0.191325 -0.18003,0.632721 -0.232347,0.980879 -0.05232,0.348158 -0.15608,0.770821 -0.230584,0.93925 -0.0745,0.168431 -0.167137,0.56113 -0.20585,0.872667 -0.03871,0.311537 -0.142293,0.759345 -0.230178,0.995129 -0.08788,0.235784 -0.179921,0.611956 -0.204526,0.835937 -0.02461,0.22398 -0.132783,0.712666 -0.240395,1.085967 -0.107612,0.373301 -0.228731,0.900522 -0.269153,1.171602 -0.12319,0.826126 -0.468881,1.107129 -0.922773,0.750097 z m -1.70195,-16.767168 c -0.757551,-0.4633 -1.275038,-0.965988 -1.433964,-1.392955 -0.405933,-1.090575 -3.178651,-3.21518 -4.464636,-3.421045 -0.224265,-0.0359 -0.510621,-0.125735 -0.636346,-0.19963 -0.125724,-0.0739 -0.377347,-0.166259 -0.559163,-0.205252 -1.115926,-0.239323 -1.568996,-1.147091 -1.505504,-3.016419 0.03796,-1.117568 0.03319,-1.176532 -0.137084,-1.696825 -0.09703,-0.296463 -0.210897,-0.736368 -0.253048,-0.977566 -0.04215,-0.241197 -0.130912,-0.516083 -0.197247,-0.610857 -0.06634,-0.09477 -0.170916,-0.325861 -0.232403,-0.513529 -0.06149,-0.187669 -0.187955,-0.453298 -0.2810417,-0.590288 -0.09309,-0.136989 -0.169249,-0.27754 -0.169249,-0.312334 0,-0.03479 -0.240061,-0.366926 -0.53347,-0.738072 -0.732938,-0.927126 -0.754063,-0.964569 -0.885242,-1.569042 -0.103491,-0.476885 -0.105669,-0.581074 -0.02026,-0.969055 0.14647,-0.665367 0.211125,-0.794303 0.675479,-1.347045 0.237035,-0.282155 0.513426,-0.644049 0.614202,-0.804209 0.100776,-0.160161 0.256322,-0.404504 0.345658,-0.542984 0.08934,-0.138481 0.2092577,-0.388975 0.2664957,-0.556655 0.05724,-0.16768 0.160737,-0.400921 0.23,-0.518313 0.06926,-0.117393 0.167608,-0.438344 0.218542,-0.713223 0.05094,-0.274879 0.157819,-0.677361 0.237521,-0.894402 0.130853,-0.356333 0.144216,-0.524263 0.137735,-1.7307609 -0.0076,-1.4207062 0.02923,-1.6615887 0.304287,-1.9884765 0.09556,-0.1135698 0.173751,-0.2320919 0.173751,-0.2633823 0,-0.098794 0.692012,-0.6125299 0.875956,-0.6502923 0.09684,-0.019881 0.342981,-0.1137802 0.546976,-0.2086653 0.203996,-0.094885 0.539968,-0.1891259 0.746603,-0.209424 0.366063,-0.035959 0.678394,-0.1502436 0.884748,-0.3237371 0.056,-0.047078 0.178167,-0.108235 0.271492,-0.135904 0.870658,-0.2581315 2.856848,-2.0473738 3.365974,-3.0322079 0.219544,-0.4246778 0.537106,-0.7556499 1.045101,-1.0892332 l 0.508379,-0.33383533 0.889129,0.021924 c 0.832485,0.020527 0.906035,0.033421 1.154509,0.2023892 0.16485,0.11210283 0.406791,0.19810993 0.638681,0.22704403 0.205316,0.025618 0.556558,0.127666 0.780539,0.2267726 0.579895,0.2565905 2.871396,0.2780503 3.332727,0.031211 0.153144,-0.081941 0.489115,-0.1853591 0.746603,-0.2298188 0.257488,-0.04446 0.63281,-0.1683101 0.834048,-0.27522313 1.124443,-0.5973898 2.956636,-0.00437 3.459012,1.11956893 0.336294,0.7523698 2.017478,2.419125 2.7479,2.7243145 0.123917,0.051776 0.263494,0.1401544 0.310171,0.1963969 0.04668,0.056242 0.19696,0.1376462 0.333961,0.1808974 0.137003,0.043251 0.360306,0.1535633 0.496231,0.2451381 0.148749,0.1002155 0.414243,0.1901201 0.666894,0.2258321 0.230867,0.032633 0.5696,0.1376829 0.752741,0.2334445 0.183141,0.095762 0.389394,0.1741121 0.458342,0.1741121 0.428847,0 1.193745,0.820009 1.456162,1.5610784 0.172101,0.4860173 0.17848,0.5520367 0.140996,1.4592689 -0.04579,1.1083311 0.139171,2.4483261 0.424216,3.0732631 0.08989,0.197089 0.163446,0.389458 0.163446,0.427485 0,0.03803 0.06477,0.197471 0.143924,0.354322 0.07916,0.156849 0.217913,0.432828 0.308343,0.613285 0.09043,0.180457 0.415462,0.626602 0.722293,0.991432 0.906325,1.077645 1.179612,1.971708 0.835657,2.733862 -0.08895,0.19709 -0.18344,0.429612 -0.209989,0.516717 -0.02655,0.08711 -0.222161,0.361991 -0.434695,0.610857 -0.39387,0.4612 -0.958295,1.270171 -0.958295,1.37349 0,0.03142 -0.07555,0.168453 -0.167888,0.304521 -0.09234,0.136067 -0.188131,0.35886 -0.212873,0.495093 -0.02474,0.136233 -0.118007,0.393394 -0.207254,0.571469 -0.09214,0.18384 -0.190932,0.550519 -0.22859,0.848412 -0.03648,0.288552 -0.09987,0.707897 -0.140864,0.931878 -0.0473,0.258432 -0.05741,0.745925 -0.02765,1.334123 0.04194,0.829073 0.03314,0.957997 -0.08337,1.221713 -0.07164,0.162156 -0.151664,0.380354 -0.177823,0.484884 -0.08202,0.327738 -0.847939,1.02992 -1.227717,1.12555 -0.179849,0.04529 -0.441622,0.140815 -0.581715,0.212285 -0.140094,0.07147 -0.463582,0.163314 -0.718862,0.204095 -0.308607,0.0493 -0.565262,0.141125 -0.765892,0.274017 -0.165962,0.109928 -0.347079,0.199869 -0.402483,0.199869 -0.0554,0 -0.195246,0.07183 -0.31076,0.159623 -0.115514,0.08779 -0.311657,0.211972 -0.435872,0.275954 -0.766247,0.394688 -2.320203,1.980855 -2.646053,2.700903 -0.142277,0.314394 -0.465068,0.64458 -0.987659,1.010283 l -0.330163,0.231044 h -0.959423 c -0.896652,0 -0.973962,-0.01037 -1.18165,-0.158504 -0.146188,-0.104268 -0.390041,-0.181433 -0.712666,-0.225516 -0.269742,-0.03686 -0.673697,-0.148788 -0.897677,-0.248734 -0.580852,-0.259192 -2.592629,-0.270814 -3.081346,-0.0178 -0.164204,0.08501 -0.56662,0.194843 -0.894258,0.244072 -0.415362,0.06241 -0.660518,0.137489 -0.809791,0.247996 -0.25905,0.191772 -1.873988,0.27414 -2.14348,0.109325 z m 7.064436,-3.817024 c 0.259303,-0.103737 0.634534,-0.184526 0.989483,-0.21304 0.412876,-0.03317 0.647659,-0.08975 0.844811,-0.203601 0.150168,-0.08672 0.437116,-0.192859 0.637664,-0.235869 0.200548,-0.04301 0.503627,-0.166347 0.67351,-0.274084 0.169883,-0.107736 0.36164,-0.195884 0.426129,-0.195884 0.06449,0 0.203844,-0.07287 0.309683,-0.161923 0.105838,-0.08906 0.306402,-0.209541 0.445695,-0.267741 0.910295,-0.380346 2.952817,-2.376254 3.797246,-3.710588 0.153558,-0.242646 0.329586,-0.517531 0.391175,-0.610856 0.184971,-0.280287 0.671036,-1.308891 0.721649,-1.527142 0.02597,-0.111991 0.120001,-0.349249 0.208956,-0.52724 0.08895,-0.177992 0.205674,-0.575049 0.259377,-0.882349 0.0537,-0.3073 0.161709,-0.741985 0.240015,-0.965965 0.216267,-0.618592 0.216821,-3.661408 7.81e-4,-4.275998 -0.07873,-0.22398 -0.187092,-0.658665 -0.240793,-0.965965 -0.0537,-0.3073 -0.174792,-0.710977 -0.269087,-0.89706 -0.0943,-0.186083 -0.171449,-0.380873 -0.171449,-0.432865 0,-0.05199 -0.08972,-0.274444 -0.199376,-0.494336 -0.109658,-0.219892 -0.262823,-0.537246 -0.340367,-0.705232 -0.07755,-0.167985 -0.239804,-0.460501 -0.360576,-0.650035 C 34.95291,10.10141 34.79301,9.8471081 34.71835,9.7258286 34.036227,8.6177731 31.748217,6.4439226 31.035875,6.2270884 30.951681,6.2014604 30.798967,6.111963 30.69651,6.0282062 30.594054,5.9444492 30.367554,5.8227812 30.193176,5.7578325 30.018798,5.6928835 29.841664,5.5982204 29.799544,5.5474696 29.757425,5.4967186 29.564126,5.4185468 29.369992,5.3737541 29.175858,5.3289611 28.88136,5.2146605 28.715553,5.1197517 28.491286,4.9913799 28.261043,4.9330684 27.81645,4.8920438 27.44874,4.8581138 27.053481,4.7707535 26.789069,4.6649722 26.205456,4.4314903 23.664486,4.3997067 23.228145,4.6204302 22.916186,4.7782351 22.3571,4.9002845 21.946184,4.9002845 c -0.216763,0 -0.415969,0.059153 -0.658421,0.1955154 -0.191195,0.1075334 -0.469798,0.2164871 -0.619119,0.2421193 -0.14932,0.025632 -0.378392,0.1161357 -0.509047,0.201119 -0.130655,0.084983 -0.348029,0.1908574 -0.483052,0.235276 -0.135024,0.044418 -0.364095,0.1705118 -0.509047,0.2802071 -0.144953,0.1096955 -0.286804,0.2002959 -0.315223,0.2013344 -0.06152,0.00225 -0.827783,0.5139391 -1.065516,0.711528 -0.362522,0.3013057 -2.151825,2.1315785 -2.329629,2.3829712 -0.505664,0.7149431 -0.718011,1.0649811 -0.989066,1.6304031 -0.08794,0.183438 -0.24817,0.51678 -0.356073,0.740761 -0.107902,0.22398 -0.229641,0.54468 -0.270529,0.712666 -0.04089,0.167985 -0.129025,0.397057 -0.195858,0.509047 -0.06683,0.11199 -0.157216,0.463233 -0.200849,0.780539 -0.04363,0.317306 -0.138871,0.798697 -0.21164,1.069757 -0.190899,0.71109 -0.191881,2.844542 -0.0017,3.60217 0.07186,0.286195 0.165975,0.764698 0.209149,1.063339 0.04318,0.298641 0.136412,0.642834 0.207194,0.764873 0.07078,0.122039 0.177698,0.410999 0.237591,0.642132 0.05989,0.231133 0.168595,0.504082 0.241561,0.606553 0.07296,0.102471 0.167288,0.286926 0.209605,0.409899 0.04232,0.122974 0.143451,0.330489 0.224741,0.461145 0.08129,0.130655 0.280791,0.466626 0.443336,0.746602 0.455899,0.785268 1.897284,2.388974 2.705191,3.009838 0.546329,0.419846 1.186245,0.858741 1.252196,0.858838 0.03194,4.6e-5 0.147425,0.07527 0.256632,0.167158 0.109205,0.09189 0.308566,0.197449 0.443022,0.234574 0.134457,0.03712 0.354944,0.142529 0.489971,0.23423 0.135028,0.0917 0.428762,0.203532 0.652743,0.248513 0.223981,0.04498 0.494183,0.143463 0.600449,0.218847 0.135889,0.0964 0.375263,0.155322 0.806836,0.198611 0.379041,0.03802 0.759257,0.124217 0.994567,0.225475 0.58683,0.252524 2.873778,0.254085 3.502913,0.0024 z m -3.327023,-1.457336 c -0.187438,-0.02957 -0.467699,-0.118509 -0.622801,-0.197637 -0.155104,-0.07913 -0.459888,-0.163486 -0.677299,-0.187464 -0.243783,-0.02689 -0.528534,-0.118391 -0.74292,-0.238739 -0.191195,-0.107328 -0.408368,-0.195143 -0.482608,-0.195143 -0.07424,0 -0.250335,-0.07828 -0.391325,-0.17396 -0.14099,-0.09568 -0.381959,-0.224077 -0.535487,-0.28533 -0.153528,-0.06125 -0.406232,-0.204407 -0.561564,-0.318119 -0.155332,-0.113712 -0.456164,-0.328827 -0.668515,-0.478034 -1.064584,-0.748023 -2.841863,-2.93631 -3.123785,-3.846179 -0.02702,-0.08719 -0.135538,-0.326519 -0.241158,-0.531835 -0.105621,-0.205315 -0.212632,-0.510744 -0.237802,-0.678729 -0.02517,-0.167986 -0.116445,-0.476276 -0.202832,-0.685089 -0.364165,-0.880251 -0.403218,-4.169849 -0.06038,-5.086156 0.06243,-0.166862 0.173625,-0.530734 0.247097,-0.808604 0.07347,-0.277869 0.188087,-0.583298 0.2547,-0.678729 0.06661,-0.09543 0.142333,-0.261137 0.168268,-0.368233 0.200458,-0.827806 2.141193,-3.2533679 3.135941,-3.9193483 1.21337,-0.8123485 1.417504,-0.9424678 1.478559,-0.9424678 0.03741,0 0.18129,-0.078498 0.319734,-0.1744403 0.138445,-0.095942 0.422372,-0.2190041 0.630949,-0.2734712 0.208577,-0.054467 0.481718,-0.1595 0.60698,-0.2334066 0.134581,-0.079404 0.461046,-0.1624385 0.798033,-0.2029742 0.313655,-0.037729 0.753539,-0.1367194 0.97752,-0.2199781 0.609656,-0.226623 2.60891,-0.2268369 3.130859,-3.326e-4 0.191436,0.083075 0.612583,0.1811011 0.935881,0.2178368 0.388264,0.044117 0.650975,0.1117658 0.773864,0.19927 0.102326,0.072863 0.363607,0.1788449 0.580623,0.2355157 0.217016,0.056671 0.445176,0.1483393 0.507022,0.2037077 0.06185,0.055368 0.280432,0.179381 0.485748,0.2755835 0.90602,0.4245244 2.591752,1.8245388 3.113515,2.5858014 0.102343,0.14932 0.305248,0.439477 0.450898,0.644793 0.291023,0.41024 0.564373,0.887276 0.777848,1.35746 0.07627,0.167985 0.214522,0.450146 0.307229,0.627024 0.09271,0.176877 0.200751,0.467034 0.2401,0.644793 0.03935,0.177759 0.131363,0.447741 0.204478,0.599961 0.405037,0.843262 0.374942,4.855839 -0.04316,5.753794 -0.0895,0.192226 -0.16303,0.41145 -0.163394,0.487163 -3.4e-4,0.07571 -0.107563,0.360723 -0.238219,0.633355 -0.130655,0.272633 -0.237555,0.53358 -0.237555,0.579883 0,0.0463 -0.09078,0.204164 -0.201731,0.350803 -0.110952,0.146638 -0.20258,0.29982 -0.203619,0.340406 -0.01184,0.462771 -2.197748,2.742671 -3.090108,3.222982 -0.149321,0.08037 -0.332578,0.200273 -0.407238,0.266447 -0.208766,0.185035 -1.182055,0.678837 -1.338,0.678837 -0.07627,0 -0.295113,0.0885 -0.486308,0.196677 -0.227091,0.128481 -0.497668,0.213504 -0.780346,0.245207 -0.237995,0.02669 -0.604509,0.128105 -0.814475,0.22536 -0.408866,0.189386 -2.714122,0.287279 -3.573219,0.151739 z"
       style="fill:#039be9;stroke-width:1;fill-opacity:1" />
  </g>
</svg>
