<?xml version="1.0" encoding="UTF-8" standalone="no"?>
<!-- Created with Inkscape (http://www.inkscape.org/) -->

<svg
   width="65mm"
   height="65mm"
   viewBox="0 0 65 65"
   version="1.1"
   id="svg12347"
   inkscape:version="1.2.2 (732a01da63, 2022-12-09)"
   sodipodi:docname="DL_VSE2024.svg"
   inkscape:export-filename="DL_VSE2024.png"
   inkscape:export-xdpi="450"
   inkscape:export-ydpi="450"
   xmlns:inkscape="http://www.inkscape.org/namespaces/inkscape"
   xmlns:sodipodi="http://sodipodi.sourceforge.net/DTD/sodipodi-0.dtd"
   xmlns="http://www.w3.org/2000/svg"
   xmlns:svg="http://www.w3.org/2000/svg">
  <sodipodi:namedview
     id="namedview12349"
     pagecolor="#ffffff"
     bordercolor="#000000"
     borderopacity="0.25"
     inkscape:showpageshadow="2"
     inkscape:pageopacity="0.0"
     inkscape:pagecheckerboard="0"
     inkscape:deskcolor="#d1d1d1"
     inkscape:document-units="mm"
     showgrid="false"
     inkscape:zoom="1.9855336"
     inkscape:cx="41.0469"
     inkscape:cy="99.469482"
     inkscape:window-width="1920"
     inkscape:window-height="1009"
     inkscape:window-x="-8"
     inkscape:window-y="-8"
     inkscape:window-maximized="1"
     inkscape:current-layer="layer1" />
  <defs
     id="defs12344" />
  <g
     inkscape:label="Layer 1"
     inkscape:groupmode="layer"
     id="layer1"
     transform="translate(-86.72209,-119.39319)">
    <g
       id="g16124">
      <g
         id="g3039"
         transform="matrix(0.38846654,0,0,0.38846654,76.693011,122.20148)">
        <path
           d="m 154.931,40.9526 22.995,-0.2302"
           id="path2785"
           stroke="#707070"
           stroke-width="3.95694"
           stroke-linecap="round"
           stroke-linejoin="round" />
        <path
           d="m 156.777,52.6953 22.996,-0.2302"
           id="path2785-7"
           stroke="#707070"
           stroke-width="3.95694"
           stroke-linecap="round"
           stroke-linejoin="round" />
      </g>
      <g
         id="g2456"
         transform="matrix(0.38846654,0,0,0.38846654,76.693011,122.20148)">
        <path
           d="m 57.1079,18.2111 c 9.2279,2.4768 31.3978,8.4285 40.9694,10.998"
           id="path7906-8"
           stroke="#707070"
           stroke-width="1.5"
           stroke-miterlimit="10"
           fill="none" />
        <path
           d="m 57.1079,29.7393 c 9.2279,2.4768 31.3978,8.4286 40.9694,10.998"
           id="path7906-8-8"
           stroke="#707070"
           stroke-width="1.5"
           stroke-miterlimit="10"
           fill="none" />
        <path
           d="m 57.1079,41.2675 c 9.2279,2.4768 31.3978,8.4286 40.9694,10.998"
           id="path7906-8-89"
           stroke="#707070"
           stroke-width="1.5"
           stroke-miterlimit="10"
           fill="none" />
        <path
           d="m 57.1079,52.7957 c 9.2279,2.4768 31.3978,8.4286 40.9694,10.998"
           id="path7906-8-1"
           stroke="#707070"
           stroke-width="1.5"
           stroke-miterlimit="10"
           fill="none" />
        <path
           d="m 55.6202,84.429 c 9.88,-1.8948 33.6165,-6.4481 43.8644,-8.4139"
           id="path7906-8-1-6"
           stroke="#707070"
           stroke-width="1.5"
           stroke-miterlimit="10"
           fill="none" />
        <path
           d="m 55.6202,96.0885 c 9.88,-1.8949 33.6165,-6.4482 43.8644,-8.4139"
           id="path7906-8-1-6-4"
           stroke="#707070"
           stroke-width="1.5"
           stroke-miterlimit="10"
           fill="none" />
        <path
           d="m 55.6202,107.748 c 9.88,-1.895 33.6165,-6.448 43.8644,-8.414"
           id="path7906-8-1-6-8"
           stroke="#707070"
           stroke-width="1.5"
           stroke-miterlimit="10"
           fill="none" />
        <path
           d="m 55.6202,119.407 c 9.88,-1.895 33.6165,-6.448 43.8644,-8.414"
           id="path7906-8-1-6-44"
           stroke="#707070"
           stroke-width="1.5"
           stroke-miterlimit="10"
           fill="none" />
        <path
           d="m 55.6202,131.067 c 9.88,-1.895 33.6165,-6.448 43.8644,-8.414"
           id="path7906-8-1-6-81"
           stroke="#707070"
           stroke-width="1.5"
           stroke-miterlimit="10"
           fill="none" />
        <path
           d="m 55.6202,142.726 c 9.88,-1.895 33.6165,-6.448 43.8644,-8.414"
           id="path7906-8-1-6-82"
           stroke="#707070"
           stroke-width="1.5"
           stroke-miterlimit="10"
           fill="none" />
      </g>
      <g
         id="g2626"
         transform="matrix(0.38846654,0,0,0.38846654,76.693011,122.20148)"
         style="stroke-width:0.514845;stroke-dasharray:none">
        <path
           d="m 103.994,77.0175 c 9.874,2.2753 33.869,7.8044 44.152,10.1735"
           id="path7724"
           stroke="#707070"
           stroke-width="0.181393"
           stroke-miterlimit="10"
           fill="none"
           style="stroke-width:0.514845;stroke-dasharray:none" />
        <path
           d="m 102.885,77.5192 c 9.43,4.3647 36.709,16.9937 46.508,21.5298"
           id="path7732"
           stroke="#707070"
           stroke-width="0.181393"
           stroke-miterlimit="10"
           fill="none"
           style="stroke-width:0.514845;stroke-dasharray:none" />
        <path
           d="m 102.13,77.7509 c 8.875,6.1714 38.821,26.9971 48.073,33.4321"
           id="path7740"
           stroke="#707070"
           stroke-width="0.181393"
           stroke-miterlimit="10"
           fill="none"
           style="stroke-width:0.514845;stroke-dasharray:none" />
        <path
           d="m 101.623,77.8618 c 8.357,7.7541 40.537,37.6162 49.181,45.6372"
           id="path7748"
           stroke="#707070"
           stroke-width="0.181393"
           stroke-miterlimit="10"
           fill="none"
           style="stroke-width:0.514845;stroke-dasharray:none" />
        <path
           d="m 102.13,74.2632 c 8.896,-6.2228 38.959,-27.2573 48.137,-33.6786"
           id="path7756"
           stroke="#707070"
           stroke-width="0.181393"
           stroke-miterlimit="10"
           fill="none"
           style="stroke-width:0.514845;stroke-dasharray:none" />
        <path
           d="m 102.885,74.4919 c 9.43,-4.4044 36.709,-17.1477 46.508,-21.7248"
           id="path7764"
           stroke="#707070"
           stroke-width="0.181393"
           stroke-miterlimit="10"
           fill="none"
           style="stroke-width:0.514845;stroke-dasharray:none" />
        <path
           d="m 103.994,74.9888 c 9.899,-2.3224 33.99,-7.9746 44.228,-10.3768"
           id="path7772"
           stroke="#707070"
           stroke-width="0.181393"
           stroke-miterlimit="10"
           fill="none"
           style="stroke-width:0.514845;stroke-dasharray:none" />
        <path
           d="m 104.743,76.0014 c 10.035,-0.0209 32.237,-0.0672 42.632,-0.089"
           id="path7780"
           stroke="#707070"
           stroke-width="0.181393"
           stroke-miterlimit="10"
           fill="none"
           style="stroke-width:0.514845;stroke-dasharray:none" />
        <path
           d="m 104.743,88.0963 c 10.035,0.0418 32.237,0.1352 42.632,0.1784"
           id="path7788"
           stroke="#707070"
           stroke-width="0.181393"
           stroke-miterlimit="10"
           fill="none"
           style="stroke-width:0.514845;stroke-dasharray:none" />
        <path
           d="m 103.994,89.1076 c 9.899,2.3434 33.99,8.0461 44.228,10.4692"
           id="path7790"
           stroke="#707070"
           stroke-width="0.181393"
           stroke-miterlimit="10"
           fill="none"
           style="stroke-width:0.514845;stroke-dasharray:none" />
        <path
           d="m 102.885,89.6024 c 9.43,4.424 36.709,17.2246 46.508,21.8216"
           id="path7792"
           stroke="#707070"
           stroke-width="0.181393"
           stroke-miterlimit="10"
           fill="none"
           style="stroke-width:0.514845;stroke-dasharray:none" />
        <path
           d="m 102.13,89.8292 c 8.896,6.2417 38.959,27.3388 48.137,33.7798"
           id="path7794"
           stroke="#707070"
           stroke-width="0.181393"
           stroke-miterlimit="10"
           fill="none"
           style="stroke-width:0.514845;stroke-dasharray:none" />
        <path
           d="m 101.623,86.2298 c 8.357,-7.7367 40.537,-37.5316 49.181,-45.534"
           id="path7796"
           stroke="#707070"
           stroke-width="0.181393"
           stroke-miterlimit="10"
           fill="none"
           style="stroke-width:0.514845;stroke-dasharray:none" />
        <path
           d="m 102.13,86.3415 c 8.875,-6.153 38.821,-26.9162 48.073,-33.3313"
           id="path7798"
           stroke="#707070"
           stroke-width="0.181393"
           stroke-miterlimit="10"
           fill="none"
           style="stroke-width:0.514845;stroke-dasharray:none" />
        <path
           d="m 102.966,86.5378 c 9.484,-4.3708 36.554,-16.8456 46.371,-21.37"
           id="path7800"
           stroke="#707070"
           stroke-width="0.181393"
           stroke-miterlimit="10"
           fill="none"
           style="stroke-width:0.514845;stroke-dasharray:none" />
        <path
           d="m 103.994,87.0784 c 9.874,-2.2542 33.869,-7.7332 44.152,-10.0805"
           id="path7802"
           stroke="#707070"
           stroke-width="0.181393"
           stroke-miterlimit="10"
           fill="none"
           style="stroke-width:0.514845;stroke-dasharray:none" />
        <path
           d="m 104.084,99.1485 c 9.912,-2.2008 33.724,-7.4877 44.005,-9.7708"
           id="path7810"
           stroke="#707070"
           stroke-width="0.181393"
           stroke-miterlimit="10"
           fill="none"
           style="stroke-width:0.514845;stroke-dasharray:none" />
        <path
           d="m 104.743,100.191 c 10.035,0.105 32.237,0.338 42.632,0.447"
           id="path7812"
           stroke="#707070"
           stroke-width="0.181393"
           stroke-miterlimit="10"
           fill="none"
           style="stroke-width:0.514845;stroke-dasharray:none" />
        <path
           d="m 103.994,101.198 c 9.899,2.405 33.99,8.259 44.228,10.747"
           id="path7814"
           stroke="#707070"
           stroke-width="0.181393"
           stroke-miterlimit="10"
           fill="none"
           style="stroke-width:0.514845;stroke-dasharray:none" />
        <path
           d="m 102.885,101.685 c 9.451,4.494 36.84,17.518 46.578,22.148"
           id="path7816"
           stroke="#707070"
           stroke-width="0.181393"
           stroke-miterlimit="10"
           fill="none"
           style="stroke-width:0.514845;stroke-dasharray:none" />
        <path
           d="m 101.284,98.2317 c 7.893,-9.0932 41.676,-48.0147 49.87,-57.4552"
           id="path7818"
           stroke="#707070"
           stroke-width="0.181393"
           stroke-miterlimit="10"
           fill="none"
           style="stroke-width:0.514845;stroke-dasharray:none" />
        <path
           d="m 101.655,98.2754 c 8.409,-7.7319 40.527,-37.2681 49.153,-45.1998"
           id="path7820"
           stroke="#707070"
           stroke-width="0.181393"
           stroke-miterlimit="10"
           fill="none"
           style="stroke-width:0.514845;stroke-dasharray:none" />
        <path
           d="m 102.13,98.4198 c 8.875,-6.0972 38.821,-26.6718 48.073,-33.0295"
           id="path7822"
           stroke="#707070"
           stroke-width="0.181393"
           stroke-miterlimit="10"
           fill="none"
           style="stroke-width:0.514845;stroke-dasharray:none" />
        <path
           d="m 102.966,98.6214 c 9.484,-4.311 36.554,-16.6158 46.371,-21.0786"
           id="path7824"
           stroke="#707070"
           stroke-width="0.181393"
           stroke-miterlimit="10"
           fill="none"
           style="stroke-width:0.514845;stroke-dasharray:none" />
        <path
           d="m 102.966,110.705 c 9.484,-4.252 36.554,-16.3863 46.371,-20.7872"
           id="path7832"
           stroke="#707070"
           stroke-width="0.181393"
           stroke-miterlimit="10"
           fill="none"
           style="stroke-width:0.514845;stroke-dasharray:none" />
        <path
           d="m 104.084,111.239 c 9.912,-2.138 33.724,-7.276 44.005,-9.494"
           id="path7834"
           stroke="#707070"
           stroke-width="0.181393"
           stroke-miterlimit="10"
           fill="none"
           style="stroke-width:0.514845;stroke-dasharray:none" />
        <path
           d="m 104.743,112.286 c 10.035,0.168 32.237,0.54 42.632,0.714"
           id="path7836"
           stroke="#707070"
           stroke-width="0.181393"
           stroke-miterlimit="10"
           fill="none"
           style="stroke-width:0.514845;stroke-dasharray:none" />
        <path
           d="m 103.904,113.266 c 9.861,2.457 34.138,8.509 44.375,11.061"
           id="path7838"
           stroke="#707070"
           stroke-width="0.181393"
           stroke-miterlimit="10"
           fill="none"
           style="stroke-width:0.514845;stroke-dasharray:none" />
        <path
           d="m 101.029,110.272 c 7.469,-10.2933 42.592,-58.7047 50.387,-69.4489"
           id="path7840"
           stroke="#707070"
           stroke-width="0.181393"
           stroke-miterlimit="10"
           fill="none"
           style="stroke-width:0.514845;stroke-dasharray:none" />
        <path
           d="m 101.284,110.305 c 7.893,-9.044 41.676,-47.7528 49.87,-57.1422"
           id="path7842"
           stroke="#707070"
           stroke-width="0.181393"
           stroke-miterlimit="10"
           fill="none"
           style="stroke-width:0.514845;stroke-dasharray:none" />
        <path
           d="m 101.655,110.351 c 8.389,-7.662 40.382,-36.881 49.094,-44.8372"
           id="path7844"
           stroke="#707070"
           stroke-width="0.181393"
           stroke-miterlimit="10"
           fill="none"
           style="stroke-width:0.514845;stroke-dasharray:none" />
        <path
           d="M 102.202,110.449 C 111.168,104.346 141,84.0362 150.216,77.7627"
           id="path7846"
           stroke="#707070"
           stroke-width="0.181393"
           stroke-miterlimit="10"
           fill="none"
           style="stroke-width:0.514845;stroke-dasharray:none" />
        <path
           d="m 102.202,122.528 c 8.946,-6.033 38.66,-26.0763 47.949,-32.3415"
           id="path7854"
           stroke="#707070"
           stroke-width="0.181393"
           stroke-miterlimit="10"
           fill="none"
           style="stroke-width:0.514845;stroke-dasharray:none" />
        <path
           d="m 103.048,122.753 c 9.538,-4.216 36.399,-16.089 46.234,-20.436"
           id="path7856"
           stroke="#707070"
           stroke-width="0.181393"
           stroke-miterlimit="10"
           fill="none"
           style="stroke-width:0.514845;stroke-dasharray:none" />
        <path
           d="m 104.084,123.33 c 9.912,-2.076 33.724,-7.065 44.005,-9.218"
           id="path7858"
           stroke="#707070"
           stroke-width="0.181393"
           stroke-miterlimit="10"
           fill="none"
           style="stroke-width:0.514845;stroke-dasharray:none" />
        <path
           d="m 104.743,124.381 c 10.035,0.231 32.237,0.743 42.632,0.982"
           id="path7860"
           stroke="#707070"
           stroke-width="0.181393"
           stroke-miterlimit="10"
           fill="none"
           style="stroke-width:0.514845;stroke-dasharray:none" />
        <path
           d="m 100.844,122.315 c 7.115,-11.417 43.351,-69.5575 50.776,-81.4722"
           id="path7862"
           stroke="#707070"
           stroke-width="0.181393"
           stroke-miterlimit="10"
           fill="none"
           style="stroke-width:0.514845;stroke-dasharray:none" />
        <path
           d="m 101.057,122.306 c 7.527,-10.327 42.583,-58.4261 50.362,-69.0991"
           id="path7864"
           stroke="#707070"
           stroke-width="0.181393"
           stroke-miterlimit="10"
           fill="none"
           style="stroke-width:0.514845;stroke-dasharray:none" />
        <path
           d="m 101.314,122.344 c 7.939,-9.047 41.592,-47.395 49.818,-56.7678"
           id="path7866"
           stroke="#707070"
           stroke-width="0.181393"
           stroke-miterlimit="10"
           fill="none"
           style="stroke-width:0.514845;stroke-dasharray:none" />
        <path
           d="m 101.655,122.426 c 8.389,-7.609 40.382,-36.6268 49.094,-44.5285"
           id="path7868"
           stroke="#707070"
           stroke-width="0.181393"
           stroke-miterlimit="10"
           fill="none"
           style="stroke-width:0.514845;stroke-dasharray:none" />
        <path
           d="m 101.688,134.472 c 8.44,-7.602 40.372,-36.3641 49.065,-44.1946"
           id="path7876"
           stroke="#707070"
           stroke-width="0.181393"
           stroke-miterlimit="10"
           fill="none"
           style="stroke-width:0.514845;stroke-dasharray:none" />
        <path
           d="m 102.202,134.607 c 8.946,-5.977 38.66,-25.834 47.949,-32.04"
           id="path7878"
           stroke="#707070"
           stroke-width="0.181393"
           stroke-miterlimit="10"
           fill="none"
           style="stroke-width:0.514845;stroke-dasharray:none" />
        <path
           d="m 103.048,134.837 c 9.538,-4.156 36.399,-15.86 46.234,-20.145"
           id="path7880"
           stroke="#707070"
           stroke-width="0.181393"
           stroke-miterlimit="10"
           fill="none"
           style="stroke-width:0.514845;stroke-dasharray:none" />
        <path
           d="m 104.176,135.402 c 9.949,-2.022 33.577,-6.823 43.857,-8.911"
           id="path7882"
           stroke="#707070"
           stroke-width="0.181393"
           stroke-miterlimit="10"
           fill="none"
           style="stroke-width:0.514845;stroke-dasharray:none" />
        <path
           d="m 100.719,134.331 c 6.853,-12.546 43.945,-80.4536 51.054,-93.4668"
           id="path7884"
           stroke="#707070"
           stroke-width="0.181393"
           stroke-miterlimit="10"
           fill="none"
           style="stroke-width:0.514845;stroke-dasharray:none" />
        <path
           d="m 100.87,134.344 c 7.177,-11.471 43.342,-69.2726 50.753,-81.1161"
           id="path7886"
           stroke="#707070"
           stroke-width="0.181393"
           stroke-miterlimit="10"
           fill="none"
           style="stroke-width:0.514845;stroke-dasharray:none" />
        <path
           d="m 101.057,134.378 c 7.527,-10.281 42.583,-58.1588 50.362,-68.7831"
           id="path7888"
           stroke="#707070"
           stroke-width="0.181393"
           stroke-miterlimit="10"
           fill="none"
           style="stroke-width:0.514845;stroke-dasharray:none" />
        <path
           d="m 101.314,134.417 c 7.939,-8.997 41.592,-47.1335 49.818,-56.4544"
           id="path7890"
           stroke="#707070"
           stroke-width="0.181393"
           stroke-miterlimit="10"
           fill="none"
           style="stroke-width:0.514845;stroke-dasharray:none" />
        <path
           d="m 101.314,29.4574 c 7.939,9.0469 41.592,47.3948 49.818,56.7676"
           id="path7898"
           stroke="#707070"
           stroke-width="0.181393"
           stroke-miterlimit="10"
           fill="none"
           style="stroke-width:0.514845;stroke-dasharray:none" />
        <path
           d="m 101.057,29.4954 c 7.527,10.3273 42.583,58.4259 50.362,69.099"
           id="path7900"
           stroke="#707070"
           stroke-width="0.181393"
           stroke-miterlimit="10"
           fill="none"
           style="stroke-width:0.514845;stroke-dasharray:none" />
        <path
           d="m 100.844,29.4861 c 7.115,11.4169 43.351,69.5576 50.776,81.4719"
           id="path7902"
           stroke="#707070"
           stroke-width="0.181393"
           stroke-miterlimit="10"
           fill="none"
           style="stroke-width:0.514845;stroke-dasharray:none" />
        <path
           d="m 100.695,29.4954 c 6.797,12.484 44.033,80.8906 51.098,93.8696"
           id="path7904"
           stroke="#707070"
           stroke-width="0.181393"
           stroke-miterlimit="10"
           fill="none"
           style="stroke-width:0.514845;stroke-dasharray:none" />
        <path
           d="m 104.084,28.4717 c 9.912,2.0759 33.724,7.0641 44.005,9.2176"
           id="path7906"
           stroke="#707070"
           stroke-width="0.181393"
           stroke-miterlimit="10"
           fill="none"
           style="stroke-width:0.514845;stroke-dasharray:none" />
        <path
           d="m 103.048,29.0486 c 9.538,4.2159 36.399,16.0881 46.234,20.4354"
           id="path7908"
           stroke="#707070"
           stroke-width="0.181393"
           stroke-miterlimit="10"
           fill="none"
           style="stroke-width:0.514845;stroke-dasharray:none" />
        <path
           d="m 102.202,29.2732 c 8.946,6.0335 38.66,26.0763 47.949,32.3415"
           id="path7910"
           stroke="#707070"
           stroke-width="0.181393"
           stroke-miterlimit="10"
           fill="none"
           style="stroke-width:0.514845;stroke-dasharray:none" />
        <path
           d="m 101.655,29.3753 c 8.389,7.6089 40.382,36.6267 49.094,44.5284"
           id="path7912"
           stroke="#707070"
           stroke-width="0.181393"
           stroke-miterlimit="10"
           fill="none"
           style="stroke-width:0.514845;stroke-dasharray:none" />
        <path
           d="m 101.655,41.4506 c 8.389,7.6617 40.382,36.8806 49.094,44.8368"
           id="path7920"
           stroke="#707070"
           stroke-width="0.181393"
           stroke-miterlimit="10"
           fill="none"
           style="stroke-width:0.514845;stroke-dasharray:none" />
        <path
           d="m 101.284,41.4964 c 7.893,9.0434 41.676,47.7526 49.87,57.142"
           id="path7922"
           stroke="#707070"
           stroke-width="0.181393"
           stroke-miterlimit="10"
           fill="none"
           style="stroke-width:0.514845;stroke-dasharray:none" />
        <path
           d="m 101.029,41.5291 c 7.469,10.2935 42.592,58.7049 50.387,69.4489"
           id="path7924"
           stroke="#707070"
           stroke-width="0.181393"
           stroke-miterlimit="10"
           fill="none"
           style="stroke-width:0.514845;stroke-dasharray:none" />
        <path
           d="m 100.844,41.5566 c 7.115,11.4614 43.351,69.8294 50.776,81.7914"
           id="path7926"
           stroke="#707070"
           stroke-width="0.181393"
           stroke-miterlimit="10"
           fill="none"
           style="stroke-width:0.514845;stroke-dasharray:none" />
        <path
           d="m 104.743,39.5156 c 10.035,-0.1683 32.237,-0.5405 42.632,-0.7146"
           id="path7928"
           stroke="#707070"
           stroke-width="0.181393"
           stroke-miterlimit="10"
           fill="none"
           style="stroke-width:0.514845;stroke-dasharray:none" />
        <path
           d="m 104.084,40.5622 c 9.912,2.1384 33.724,7.2761 44.005,9.4942"
           id="path7930"
           stroke="#707070"
           stroke-width="0.181393"
           stroke-miterlimit="10"
           fill="none"
           style="stroke-width:0.514845;stroke-dasharray:none" />
        <path
           d="m 102.966,41.0963 c 9.484,4.2517 36.554,16.3863 46.371,20.7871"
           id="path7932"
           stroke="#707070"
           stroke-width="0.181393"
           stroke-miterlimit="10"
           fill="none"
           style="stroke-width:0.514845;stroke-dasharray:none" />
        <path
           d="m 102.202,41.352 c 8.966,6.1037 38.798,26.4131 48.014,32.6865"
           id="path7934"
           stroke="#707070"
           stroke-width="0.181393"
           stroke-miterlimit="10"
           fill="none"
           style="stroke-width:0.514845;stroke-dasharray:none" />
        <path
           d="m 102.13,53.3814 c 8.875,6.0972 38.821,26.6719 48.073,33.0295"
           id="path7942"
           stroke="#707070"
           stroke-width="0.181393"
           stroke-miterlimit="10"
           fill="none"
           style="stroke-width:0.514845;stroke-dasharray:none" />
        <path
           d="m 101.655,53.5258 c 8.409,7.7319 40.527,37.2681 49.153,45.1998"
           id="path7944"
           stroke="#707070"
           stroke-width="0.181393"
           stroke-miterlimit="10"
           fill="none"
           style="stroke-width:0.514845;stroke-dasharray:none" />
        <path
           d="m 101.284,53.5694 c 7.893,9.0933 41.676,48.0146 49.87,57.4556"
           id="path7946"
           stroke="#707070"
           stroke-width="0.181393"
           stroke-miterlimit="10"
           fill="none"
           style="stroke-width:0.514845;stroke-dasharray:none" />
        <path
           d="m 101.029,53.6004 c 7.476,10.3519 42.669,59.0796 50.412,69.8006"
           id="path7948"
           stroke="#707070"
           stroke-width="0.181393"
           stroke-miterlimit="10"
           fill="none"
           style="stroke-width:0.514845;stroke-dasharray:none" />
        <path
           d="m 103.994,50.6036 c 9.899,-2.4053 33.99,-8.2595 44.228,-10.7473"
           id="path7950"
           stroke="#707070"
           stroke-width="0.181393"
           stroke-miterlimit="10"
           fill="none"
           style="stroke-width:0.514845;stroke-dasharray:none" />
        <path
           d="m 104.743,51.6101 c 10.035,-0.1052 32.237,-0.3377 42.632,-0.4464"
           id="path7952"
           stroke="#707070"
           stroke-width="0.181393"
           stroke-miterlimit="10"
           fill="none"
           style="stroke-width:0.514845;stroke-dasharray:none" />
        <path
           d="m 104.084,52.6528 c 9.912,2.2007 33.724,7.4877 44.005,9.7708"
           id="path7954"
           stroke="#707070"
           stroke-width="0.181393"
           stroke-miterlimit="10"
           fill="none"
           style="stroke-width:0.514845;stroke-dasharray:none" />
        <path
           d="m 102.966,53.1798 c 9.484,4.3111 36.554,16.6158 46.371,21.0786"
           id="path7956"
           stroke="#707070"
           stroke-width="0.181393"
           stroke-miterlimit="10"
           fill="none"
           style="stroke-width:0.514845;stroke-dasharray:none" />
        <path
           d="m 103.212,65.4811 c 9.714,4.4558 36.478,16.734 46.173,21.1815"
           id="path7964"
           stroke="#707070"
           stroke-width="0.181393"
           stroke-miterlimit="10"
           fill="none"
           style="stroke-width:0.514845;stroke-dasharray:none" />
        <path
           d="m 102.348,65.7167 c 9.146,6.3223 38.753,26.7874 47.891,33.1045"
           id="path7966"
           stroke="#707070"
           stroke-width="0.181393"
           stroke-miterlimit="10"
           fill="none"
           style="stroke-width:0.514845;stroke-dasharray:none" />
        <path
           d="m 101.82,65.8606 c 8.642,7.9834 40.33,37.2554 48.953,45.2204"
           id="path7968"
           stroke="#707070"
           stroke-width="0.181393"
           stroke-miterlimit="10"
           fill="none"
           style="stroke-width:0.514845;stroke-dasharray:none" />
        <path
           d="m 101.435,65.9249 c 8.159,9.4338 41.554,48.0471 49.712,57.4801"
           id="path7970"
           stroke="#707070"
           stroke-width="0.181393"
           stroke-miterlimit="10"
           fill="none"
           style="stroke-width:0.514845;stroke-dasharray:none" />
        <path
           d="m 103.129,62.1892 c 9.661,-4.5535 36.633,-17.2658 46.31,-21.8268"
           id="path7972"
           stroke="#707070"
           stroke-width="0.181393"
           stroke-miterlimit="10"
           fill="none"
           style="stroke-width:0.514845;stroke-dasharray:none" />
        <path
           d="M 104.362,62.708 C 114.48,60.2918 138.12,54.6467 148.229,52.2327"
           id="path7974"
           stroke="#707070"
           stroke-width="0.181393"
           stroke-miterlimit="10"
           fill="none"
           style="stroke-width:0.514845;stroke-dasharray:none" />
        <path
           d="m 105.136,63.8035 c 10.218,-0.0641 32.005,-0.201 42.259,-0.2657"
           id="path7976"
           stroke="#707070"
           stroke-width="0.181393"
           stroke-miterlimit="10"
           fill="none"
           style="stroke-width:0.514845;stroke-dasharray:none" />
        <path
           d="m 104.456,64.9296 c 10.152,2.2967 33.61,7.6038 43.718,9.8903"
           id="path7978"
           stroke="#707070"
           stroke-width="0.181393"
           stroke-miterlimit="10"
           fill="none"
           style="stroke-width:0.514845;stroke-dasharray:none" />
      </g>
      <path
         d="m 98.388685,127.12933 c 1.071934,0 1.940965,0.869 1.940965,1.94094 0,1.07196 -0.869031,1.94096 -1.940965,1.94096 -1.07196,0 -1.940956,-0.869 -1.940956,-1.94096 0,-1.07194 0.868996,-1.94094 1.940956,-1.94094"
         id="path210"
         stroke="#219150"
         stroke-width="0.396875"
         stroke-miterlimit="10"
         fill="#2ecc71" />
      <path
         d="m 98.388685,135.90419 c 1.071934,0 1.940965,0.869 1.940965,1.94096 0,1.07193 -0.869031,1.94096 -1.940965,1.94096 -1.07196,0 -1.940956,-0.86903 -1.940956,-1.94096 0,-1.07196 0.868996,-1.94096 1.940956,-1.94096"
         id="path210-3"
         stroke="#219150"
         stroke-width="0.396875"
         stroke-miterlimit="10"
         fill="#2ecc71" />
      <path
         d="m 98.388685,131.51677 c 1.071934,0 1.940965,0.869 1.940965,1.94096 0,1.07193 -0.869031,1.94093 -1.940965,1.94093 -1.07196,0 -1.940956,-0.869 -1.940956,-1.94093 0,-1.07196 0.868996,-1.94096 1.940956,-1.94096"
         id="path210-0"
         stroke="#219150"
         stroke-width="0.396875"
         stroke-miterlimit="10"
         fill="#2ecc71" />
      <path
         d="m 98.388685,140.29165 c 1.071934,0 1.940965,0.869 1.940965,1.94093 0,1.07196 -0.869031,1.94096 -1.940965,1.94096 -1.07196,0 -1.940956,-0.869 -1.940956,-1.94096 0,-1.07193 0.868996,-1.94093 1.940956,-1.94093"
         id="path210-2"
         stroke="#219150"
         stroke-width="0.396875"
         stroke-miterlimit="10"
         fill="#2ecc71" />
      <path
         d="m 98.388685,152.82086 c 1.071934,0 1.940965,0.86889 1.940965,1.94098 0,1.07183 -0.869031,1.94072 -1.940965,1.94072 -1.07196,0 -1.940956,-0.86889 -1.940956,-1.94072 0,-1.07209 0.868996,-1.94098 1.940956,-1.94098"
         id="path210-6"
         stroke="#1b6597"
         stroke-width="0.396875"
         stroke-miterlimit="10"
         fill="#3498db" />
      <path
         d="m 98.388685,161.90771 c 1.071934,0 1.940965,0.86889 1.940965,1.94098 0,1.07183 -0.869031,1.94099 -1.940965,1.94099 -1.07196,0 -1.940956,-0.86916 -1.940956,-1.94099 0,-1.07209 0.868996,-1.94098 1.940956,-1.94098"
         id="path210-3-8"
         stroke="#1b6597"
         stroke-width="0.396875"
         stroke-miterlimit="10"
         fill="#3498db" />
      <path
         d="m 98.388685,157.36428 c 1.071934,0 1.940965,0.8689 1.940965,1.94099 0,1.07182 -0.869031,1.94098 -1.940965,1.94098 -1.07196,0 -1.940956,-0.86916 -1.940956,-1.94098 0,-1.07209 0.868996,-1.94099 1.940956,-1.94099"
         id="path210-0-1"
         stroke="#1b6597"
         stroke-width="0.396875"
         stroke-miterlimit="10"
         fill="#3498db" />
      <path
         d="m 98.388685,166.45113 c 1.071934,0 1.940965,0.8689 1.940965,1.94099 0,1.07182 -0.869031,1.94098 -1.940965,1.94098 -1.07196,0 -1.940956,-0.86916 -1.940956,-1.94098 0,-1.07209 0.868996,-1.94099 1.940956,-1.94099"
         id="path210-2-2"
         stroke="#1b6597"
         stroke-width="0.396875"
         stroke-miterlimit="10"
         fill="#3498db" />
      <path
         d="m 98.388685,170.99456 c 1.071934,0 1.940965,0.86889 1.940965,1.94098 0,1.07183 -0.869031,1.94099 -1.940965,1.94099 -1.07196,0 -1.940956,-0.86916 -1.940956,-1.94099 0,-1.07209 0.868996,-1.94098 1.940956,-1.94098"
         id="path210-3-8-4"
         stroke="#1b6597"
         stroke-width="0.396875"
         stroke-miterlimit="10"
         fill="#3498db" />
      <path
         d="m 98.388685,175.53798 c 1.071934,0 1.940965,0.8689 1.940965,1.94099 0,1.07182 -0.869031,1.94098 -1.940965,1.94098 -1.07196,0 -1.940956,-0.86916 -1.940956,-1.94098 0,-1.07209 0.868996,-1.94099 1.940956,-1.94099"
         id="path210-2-2-2"
         stroke="#1b6597"
         stroke-width="0.396875"
         stroke-miterlimit="10"
         fill="#3498db" />
      <path
         d="m 115.47638,131.56289 c 1.07183,0 1.94072,0.86899 1.94072,1.94093 0,1.07195 -0.86889,1.94095 -1.94072,1.94095 -1.07209,0 -1.94109,-0.869 -1.94109,-1.94095 0,-1.07194 0.869,-1.94093 1.94109,-1.94093"
         id="path210-8"
         stroke="#aa8800"
         stroke-width="0.388467"
         stroke-miterlimit="10"
         fill="#ffdd55" />
      <path
         d="m 115.47638,140.68612 c 1.07183,0 1.94072,0.86902 1.94072,1.94095 0,1.07196 -0.86889,1.94096 -1.94072,1.94096 -1.07209,0 -1.94109,-0.869 -1.94109,-1.94096 0,-1.07193 0.869,-1.94095 1.94109,-1.94095"
         id="path210-3-4"
         stroke="#aa8800"
         stroke-width="0.388467"
         stroke-miterlimit="10"
         fill="#ffdd55" />
      <path
         d="m 115.47638,136.12449 c 1.07183,0 1.94072,0.86902 1.94072,1.94095 0,1.07196 -0.86889,1.94096 -1.94072,1.94096 -1.07209,0 -1.94109,-0.869 -1.94109,-1.94096 0,-1.07193 0.869,-1.94095 1.94109,-1.94095"
         id="path210-0-7"
         stroke="#aa8800"
         stroke-width="0.388467"
         stroke-miterlimit="10"
         fill="#ffdd55" />
      <path
         d="m 115.47638,145.24774 c 1.07183,0 1.94072,0.86903 1.94072,1.94096 0,1.07196 -0.86889,1.94096 -1.94072,1.94096 -1.07209,0 -1.94109,-0.869 -1.94109,-1.94096 0,-1.07193 0.869,-1.94096 1.94109,-1.94096"
         id="path210-2-23"
         stroke="#aa8800"
         stroke-width="0.388467"
         stroke-miterlimit="10"
         fill="#ffdd55" />
      <path
         d="m 115.47638,149.80937 c 1.07183,0 1.94072,0.86903 1.94072,1.94096 0,1.07185 -0.86889,1.94101 -1.94072,1.94101 -1.07209,0 -1.94109,-0.86916 -1.94109,-1.94101 0,-1.07193 0.869,-1.94096 1.94109,-1.94096"
         id="path210-6-2"
         stroke="#aa8800"
         stroke-width="0.388467"
         stroke-miterlimit="10"
         fill="#ffdd55" />
      <path
         d="m 115.47638,158.93273 c 1.07183,0 1.94072,0.8689 1.94072,1.94072 0,1.07209 -0.86889,1.94099 -1.94072,1.94099 -1.07209,0 -1.94109,-0.8689 -1.94109,-1.94099 0,-1.07182 0.869,-1.94072 1.94109,-1.94072"
         id="path210-3-8-7"
         stroke="#aa8800"
         stroke-width="0.388467"
         stroke-miterlimit="10"
         fill="#ffdd55" />
      <path
         d="m 115.47638,154.37105 c 1.07183,0 1.94072,0.86889 1.94072,1.94099 0,1.07182 -0.86889,1.94098 -1.94072,1.94098 -1.07209,0 -1.94109,-0.86916 -1.94109,-1.94098 0,-1.0721 0.869,-1.94099 1.94109,-1.94099"
         id="path210-0-1-9"
         stroke="#aa8800"
         stroke-width="0.388467"
         stroke-miterlimit="10"
         fill="#ffdd55" />
      <path
         d="m 115.47638,163.49415 c 1.07183,0 1.94072,0.86916 1.94072,1.94098 0,1.0721 -0.86889,1.94099 -1.94072,1.94099 -1.07209,0 -1.94109,-0.86889 -1.94109,-1.94099 0,-1.07182 0.869,-1.94098 1.94109,-1.94098"
         id="path210-2-2-7"
         stroke="#aa8800"
         stroke-width="0.388467"
         stroke-miterlimit="10"
         fill="#ffdd55" />
      <path
         d="m 115.47638,168.05583 c 1.07183,0 1.94072,0.86916 1.94072,1.94099 0,1.07209 -0.86889,1.94098 -1.94072,1.94098 -1.07209,0 -1.94109,-0.86889 -1.94109,-1.94098 0,-1.07183 0.869,-1.94099 1.94109,-1.94099"
         id="path210-3-8-4-0"
         stroke="#aa8800"
         stroke-width="0.388467"
         stroke-miterlimit="10"
         fill="#ffdd55" />
      <path
         d="m 115.47638,172.61751 c 1.07183,0 1.94072,0.86889 1.94072,1.94099 0,1.07182 -0.86889,1.94098 -1.94072,1.94098 -1.07209,0 -1.94109,-0.86916 -1.94109,-1.94098 0,-1.0721 0.869,-1.94099 1.94109,-1.94099"
         id="path210-2-2-2-4"
         stroke="#aa8800"
         stroke-width="0.388467"
         stroke-miterlimit="10"
         fill="#ffdd55" />
      <g
         id="g3031"
         stroke="#aa0000"
         fill="#ff2a2a"
         transform="matrix(0.38846654,0,0,0.38846654,76.693011,122.20148)">
        <path
           d="m 152.6,35.8411 c 2.76,0 4.997,2.237 4.997,4.9964 0,2.7594 -2.237,4.9965 -4.997,4.9965 -2.759,0 -4.996,-2.2371 -4.996,-4.9965 0,-2.7594 2.237,-4.9964 4.996,-4.9964"
           id="path210-3-4-8"
           stroke-miterlimit="10" />
        <path
           d="m 152.6,47.5837 c 2.76,0 4.997,2.2371 4.997,4.9965 0,2.7594 -2.237,4.9964 -4.997,4.9964 -2.759,0 -4.996,-2.237 -4.996,-4.9964 0,-2.7594 2.237,-4.9965 4.996,-4.9965"
           id="path210-2-23-7"
           stroke-miterlimit="10" />
      </g>
      <path
         d="m 135.97312,145.24774 c 1.07183,0 1.94072,0.86903 1.94072,1.94096 0,1.07193 -0.86889,1.94096 -1.94072,1.94096 -1.07209,0 -1.94098,-0.86903 -1.94098,-1.94096 0,-1.07193 0.86889,-1.94096 1.94098,-1.94096"
         id="path210-6-2-8"
         stroke="#1b6597"
         stroke-width="0.388467"
         stroke-miterlimit="10"
         fill="#79bbe7" />
      <path
         d="m 135.97312,154.37105 c 1.07183,0 1.94072,0.86889 1.94072,1.94099 0,1.07182 -0.86889,1.94098 -1.94072,1.94098 -1.07209,0 -1.94098,-0.86916 -1.94098,-1.94098 0,-1.0721 0.86889,-1.94099 1.94098,-1.94099"
         id="path210-3-8-7-5"
         stroke="#1b6597"
         stroke-width="0.388467"
         stroke-miterlimit="10"
         fill="#79bbe7" />
      <path
         d="m 135.97312,149.80937 c 1.07183,0 1.94072,0.86903 1.94072,1.94096 0,1.07185 -0.86889,1.94101 -1.94072,1.94101 -1.07209,0 -1.94098,-0.86916 -1.94098,-1.94101 0,-1.07193 0.86889,-1.94096 1.94098,-1.94096"
         id="path210-0-1-9-9"
         stroke="#1b6597"
         stroke-width="0.388467"
         stroke-miterlimit="10"
         fill="#79bbe7" />
      <path
         d="m 135.97312,158.93273 c 1.07183,0 1.94072,0.8689 1.94072,1.94099 0,1.07182 -0.86889,1.94072 -1.94072,1.94072 -1.07209,0 -1.94098,-0.8689 -1.94098,-1.94072 0,-1.07209 0.86889,-1.94099 1.94098,-1.94099"
         id="path210-2-2-7-7"
         stroke="#1b6597"
         stroke-width="0.388467"
         stroke-miterlimit="10"
         fill="#79bbe7" />
      <path
         d="m 135.97312,163.49415 c 1.07183,0 1.94072,0.86916 1.94072,1.94098 0,1.0721 -0.86889,1.94099 -1.94072,1.94099 -1.07209,0 -1.94098,-0.86889 -1.94098,-1.94099 0,-1.07182 0.86889,-1.94098 1.94098,-1.94098"
         id="path210-3-8-4-0-9"
         stroke="#1b6597"
         stroke-width="0.388467"
         stroke-miterlimit="10"
         fill="#79bbe7" />
      <path
         d="m 135.97312,168.05583 c 1.07183,0 1.94072,0.86916 1.94072,1.94099 0,1.07209 -0.86889,1.94098 -1.94072,1.94098 -1.07209,0 -1.94098,-0.86889 -1.94098,-1.94098 0,-1.07183 0.86889,-1.94099 1.94098,-1.94099"
         id="path210-2-2-2-4-8"
         stroke="#1b6597"
         stroke-width="0.388467"
         stroke-miterlimit="10"
         fill="#79bbe7" />
      <g
         id="g3035"
         stroke="#672178"
         fill="#bc5fd3"
         transform="matrix(0.38846654,0,0,0.38846654,76.693011,122.20148)">
        <path
           d="m 181.175,35.8411 c 2.76,0 4.997,2.237 4.997,4.9964 0,2.7594 -2.237,4.9965 -4.997,4.9965 -2.759,0 -4.996,-2.2371 -4.996,-4.9965 0,-2.7594 2.237,-4.9964 4.996,-4.9964"
           id="path2725"
           stroke-miterlimit="10" />
        <path
           d="m 181.175,47.5837 c 2.76,0 4.997,2.2371 4.997,4.9965 0,2.7594 -2.237,4.9964 -4.997,4.9964 -2.759,0 -4.996,-2.237 -4.996,-4.9964 0,-2.7594 2.237,-4.9965 4.996,-4.9965"
           id="path2727"
           stroke-miterlimit="10" />
      </g>
      <path
         d="m 137.36695,172.10025 c 4.08331,0.0601 1.39911,-12.6783 3.87932,-13.5718 -2.48021,-0.8935 0.20399,-13.6317 -3.87932,-13.57151"
         id="path4190-4"
         stroke="#4d4d4d"
         stroke-width="0.389607"
         stroke-linecap="round"
         stroke-linejoin="round"
         fill="none" />
      <path
         d="m 142.69777,158.60068 c 4.19735,-0.1262 7.57502,1.49014 7.16412,7.9756 -0.4265,6.72941 -0.81385,16.20211 -8.42645,16.123 -7.61285,-0.0794 -36.66455,0.0436 -44.756042,-0.0218 -4.045744,-0.0326 -7.670975,-3.26737 -8.012689,-7.97351 -0.341715,-4.70588 -0.270949,-9.17783 5.055309,-10.28008"
         id="path419"
         stroke="#4d4d4d"
         stroke-width="0.396875"
         stroke-linecap="round"
         stroke-linejoin="round"
         fill="none"
         sodipodi:nodetypes="cccccc" />
      <path
         d="m 92.695433,165.98811 1.026584,-1.56421 -1.318603,-0.85381"
         id="path1292"
         stroke="#4d4d4d"
         stroke-width="0.396875"
         stroke-linecap="round"
         stroke-linejoin="round"
         fill="none" />
    </g>
    <text
       xml:space="preserve"
       style="font-weight:bold;font-size:9.2485px;font-family:Calibri;-inkscape-font-specification:'Calibri Bold';text-align:center;text-anchor:middle;fill:#ffffff;fill-opacity:0;stroke:#000000;stroke-width:0.374516;stroke-linecap:round;stroke-linejoin:round;stroke-miterlimit:8;stroke-dasharray:none;paint-order:stroke fill markers"
       x="119.22221"
       y="126.93703"
       id="text14865"><tspan
         sodipodi:role="line"
         id="tspan14863"
         style="fill:#ffffff;stroke:#000000;stroke-width:0.374516"
         x="119.22221"
         y="126.93703">RNN</tspan></text>
  </g>
</svg>
